<svg xmlns="http://www.w3.org/2000/svg" xmlns:xlink="http://www.w3.org/1999/xlink" width="100" zoomAndPan="magnify" viewBox="0 0 75 37.5" height="50" preserveAspectRatio="xMidYMid meet" version="1.0"><defs><g/><clipPath id="745a137571"><path d="M 25 8 L 52 8 L 52 24 L 25 24 Z M 25 8 " clip-rule="nonzero"/></clipPath><clipPath id="0460798b13"><path d="M 31.042969 4.589844 L 51.035156 10.050781 L 45.964844 28.613281 L 25.972656 23.152344 Z M 31.042969 4.589844 " clip-rule="nonzero"/></clipPath><clipPath id="080f12b22c"><path d="M 31.042969 4.589844 L 51.035156 10.050781 L 45.964844 28.613281 L 25.972656 23.152344 Z M 31.042969 4.589844 " clip-rule="nonzero"/></clipPath><clipPath id="bce21acb83"><path d="M 11.085938 7.859375 L 35.511719 7.859375 L 35.511719 32.285156 L 11.085938 32.285156 Z M 11.085938 7.859375 " clip-rule="nonzero"/></clipPath></defs><g clip-path="url(#745a137571)"><g clip-path="url(#0460798b13)"><g clip-path="url(#080f12b22c)"><path fill="#ffffff" d="M 49.167969 9.769531 C 49.339844 9.820312 49.410156 9.96875 49.324219 10.097656 C 48.410156 11.484375 47.285156 12.488281 46.019531 13.242188 C 45.902344 13.316406 45.695312 13.304688 45.558594 13.21875 C 44.554688 12.605469 43.550781 11.992188 42.546875 11.378906 C 42.410156 11.292969 42.375 11.1875 42.460938 11.132812 C 43.40625 10.570312 44.246094 9.824219 44.925781 8.789062 C 44.988281 8.691406 45.175781 8.652344 45.347656 8.699219 C 46.621094 9.054688 47.894531 9.414062 49.167969 9.769531 Z M 50.460938 10.308594 C 50.5 10.320312 50.511719 10.355469 50.492188 10.386719 C 50.414062 10.507812 50.335938 10.625 50.253906 10.738281 C 50.230469 10.769531 50.183594 10.785156 50.144531 10.773438 C 49.910156 10.695312 49.671875 10.621094 49.4375 10.546875 C 49.402344 10.535156 49.386719 10.5 49.40625 10.472656 C 49.484375 10.359375 49.5625 10.25 49.636719 10.132812 C 49.65625 10.101562 49.703125 10.085938 49.742188 10.097656 C 49.980469 10.167969 50.21875 10.238281 50.460938 10.308594 Z M 49.675781 11.378906 C 49.714844 11.394531 49.726562 11.425781 49.703125 11.453125 C 49.613281 11.558594 49.523438 11.660156 49.433594 11.761719 C 49.410156 11.785156 49.363281 11.796875 49.328125 11.78125 C 49.101562 11.691406 48.875 11.605469 48.652344 11.515625 C 48.617188 11.5 48.605469 11.46875 48.628906 11.445312 C 48.714844 11.347656 48.796875 11.253906 48.882812 11.152344 C 48.902344 11.125 48.953125 11.117188 48.988281 11.128906 C 49.21875 11.214844 49.445312 11.296875 49.675781 11.378906 Z M 48.808594 12.304688 C 48.84375 12.320312 48.855469 12.351562 48.828125 12.375 C 48.734375 12.464844 48.636719 12.550781 48.539062 12.636719 C 48.511719 12.660156 48.460938 12.664062 48.429688 12.648438 C 48.214844 12.546875 48 12.449219 47.789062 12.347656 C 47.753906 12.332031 47.746094 12.300781 47.769531 12.28125 C 47.863281 12.199219 47.957031 12.117188 48.050781 12.03125 C 48.074219 12.007812 48.121094 12.003906 48.15625 12.019531 C 48.375 12.113281 48.59375 12.210938 48.808594 12.304688 Z M 47.871094 13.09375 C 47.902344 13.113281 47.90625 13.140625 47.882812 13.160156 C 47.777344 13.238281 47.675781 13.3125 47.570312 13.386719 C 47.539062 13.402344 47.492188 13.40625 47.460938 13.386719 C 47.257812 13.277344 47.058594 13.167969 46.859375 13.058594 C 46.824219 13.039062 46.820312 13.011719 46.847656 12.992188 C 46.949219 12.925781 47.046875 12.855469 47.144531 12.78125 C 47.171875 12.761719 47.21875 12.761719 47.253906 12.777344 C 47.457031 12.882812 47.664062 12.988281 47.871094 13.09375 Z M 46.863281 13.765625 C 46.894531 13.785156 46.898438 13.8125 46.867188 13.828125 C 46.757812 13.894531 46.648438 13.957031 46.535156 14.019531 C 46.507812 14.035156 46.457031 14.03125 46.429688 14.011719 C 46.242188 13.894531 46.054688 13.777344 45.867188 13.660156 C 45.835938 13.640625 45.835938 13.613281 45.863281 13.597656 C 45.96875 13.539062 46.074219 13.480469 46.179688 13.417969 C 46.207031 13.402344 46.253906 13.402344 46.285156 13.421875 C 46.476562 13.535156 46.671875 13.652344 46.863281 13.765625 Z M 45.308594 13.355469 C 45.441406 13.441406 45.453125 13.5625 45.328125 13.625 C 44.015625 14.292969 42.578125 14.738281 41.09375 15.089844 C 40.953125 15.121094 40.765625 15.066406 40.683594 14.964844 C 40.039062 14.222656 39.398438 13.476562 38.757812 12.734375 C 38.671875 12.632812 38.6875 12.53125 38.789062 12.507812 C 39.898438 12.246094 40.96875 11.917969 41.945312 11.417969 C 42.039062 11.371094 42.21875 11.398438 42.351562 11.484375 C 43.339844 12.109375 44.324219 12.734375 45.308594 13.355469 Z M 45.800781 14.332031 C 45.828125 14.351562 45.828125 14.378906 45.796875 14.390625 C 45.679688 14.445312 45.566406 14.5 45.449219 14.550781 C 45.417969 14.5625 45.371094 14.558594 45.339844 14.539062 C 45.167969 14.414062 44.996094 14.289062 44.824219 14.164062 C 44.792969 14.144531 44.796875 14.117188 44.824219 14.105469 C 44.9375 14.054688 45.046875 14.003906 45.15625 13.953125 C 45.1875 13.941406 45.234375 13.945312 45.261719 13.964844 C 45.441406 14.085938 45.621094 14.207031 45.800781 14.332031 Z M 44.683594 14.804688 C 44.710938 14.828125 44.707031 14.851562 44.675781 14.863281 C 44.554688 14.910156 44.433594 14.953125 44.3125 14.996094 C 44.28125 15.007812 44.234375 15 44.207031 14.980469 C 44.050781 14.847656 43.890625 14.71875 43.734375 14.589844 C 43.707031 14.566406 43.710938 14.542969 43.742188 14.53125 C 43.859375 14.488281 43.972656 14.449219 44.089844 14.40625 C 44.117188 14.394531 44.164062 14.402344 44.191406 14.421875 C 44.355469 14.550781 44.519531 14.679688 44.683594 14.804688 Z M 43.527344 15.207031 C 43.550781 15.226562 43.542969 15.253906 43.511719 15.261719 C 43.386719 15.300781 43.261719 15.339844 43.136719 15.375 C 43.105469 15.382812 43.058594 15.375 43.035156 15.351562 C 42.894531 15.214844 42.75 15.082031 42.609375 14.945312 C 42.585938 14.925781 42.589844 14.898438 42.621094 14.890625 C 42.742188 14.855469 42.859375 14.820312 42.980469 14.785156 C 43.011719 14.773438 43.054688 14.785156 43.078125 14.804688 C 43.230469 14.9375 43.378906 15.070312 43.527344 15.207031 Z M 42.335938 15.542969 C 42.359375 15.566406 42.347656 15.589844 42.316406 15.597656 C 42.1875 15.632812 42.058594 15.664062 41.933594 15.695312 C 41.898438 15.703125 41.855469 15.691406 41.835938 15.667969 C 41.707031 15.527344 41.578125 15.390625 41.453125 15.25 C 41.433594 15.226562 41.441406 15.203125 41.472656 15.195312 C 41.59375 15.164062 41.71875 15.136719 41.839844 15.105469 C 41.871094 15.097656 41.914062 15.109375 41.933594 15.128906 C 42.070312 15.265625 42.203125 15.40625 42.335938 15.542969 Z M 38.246094 12.386719 C 38.265625 12.410156 38.261719 12.429688 38.238281 12.4375 C 38.148438 12.457031 38.0625 12.476562 37.972656 12.496094 C 37.949219 12.5 37.914062 12.484375 37.898438 12.460938 C 37.785156 12.320312 37.675781 12.175781 37.5625 12.03125 C 37.546875 12.007812 37.546875 11.988281 37.570312 11.980469 C 37.652344 11.964844 37.734375 11.945312 37.820312 11.929688 C 37.839844 11.925781 37.875 11.9375 37.890625 11.960938 C 38.011719 12.101562 38.128906 12.246094 38.246094 12.386719 Z M 41.121094 15.835938 C 41.140625 15.855469 41.128906 15.882812 41.09375 15.890625 C 40.964844 15.917969 40.832031 15.945312 40.703125 15.972656 C 40.667969 15.980469 40.628906 15.96875 40.609375 15.945312 C 40.496094 15.800781 40.386719 15.660156 40.273438 15.515625 C 40.257812 15.492188 40.269531 15.46875 40.300781 15.460938 C 40.425781 15.433594 40.550781 15.40625 40.671875 15.382812 C 40.707031 15.375 40.746094 15.386719 40.765625 15.410156 C 40.882812 15.550781 41.003906 15.691406 41.121094 15.835938 Z M 39.886719 16.09375 C 39.902344 16.117188 39.886719 16.140625 39.851562 16.148438 C 39.722656 16.175781 39.589844 16.199219 39.460938 16.226562 C 39.425781 16.230469 39.386719 16.21875 39.371094 16.195312 C 39.273438 16.046875 39.179688 15.902344 39.085938 15.753906 C 39.070312 15.730469 39.082031 15.707031 39.117188 15.703125 C 39.242188 15.675781 39.367188 15.652344 39.492188 15.628906 C 39.523438 15.621094 39.5625 15.636719 39.578125 15.65625 C 39.683594 15.804688 39.785156 15.949219 39.886719 16.09375 Z M 38.640625 16.335938 C 38.65625 16.359375 38.640625 16.382812 38.605469 16.390625 C 38.472656 16.414062 38.339844 16.441406 38.210938 16.464844 C 38.175781 16.472656 38.136719 16.457031 38.125 16.433594 C 38.046875 16.285156 37.964844 16.132812 37.886719 15.984375 C 37.875 15.960938 37.890625 15.9375 37.921875 15.929688 C 38.050781 15.90625 38.175781 15.882812 38.300781 15.859375 C 38.332031 15.851562 38.371094 15.867188 38.382812 15.890625 C 38.46875 16.039062 38.554688 16.1875 38.640625 16.335938 Z M 37.394531 16.574219 C 37.40625 16.597656 37.386719 16.621094 37.355469 16.628906 C 37.222656 16.65625 37.089844 16.679688 36.960938 16.707031 C 36.925781 16.714844 36.890625 16.699219 36.878906 16.675781 C 36.816406 16.523438 36.753906 16.367188 36.691406 16.214844 C 36.679688 16.191406 36.699219 16.167969 36.734375 16.160156 C 36.859375 16.136719 36.984375 16.109375 37.109375 16.085938 C 37.140625 16.082031 37.175781 16.09375 37.1875 16.117188 C 37.257812 16.269531 37.328125 16.421875 37.394531 16.574219 Z M 36.15625 16.824219 C 36.164062 16.847656 36.144531 16.875 36.109375 16.878906 C 35.980469 16.910156 35.851562 16.9375 35.722656 16.964844 C 35.6875 16.972656 35.652344 16.957031 35.644531 16.933594 C 35.597656 16.777344 35.550781 16.621094 35.503906 16.464844 C 35.496094 16.441406 35.519531 16.414062 35.550781 16.40625 C 35.675781 16.378906 35.796875 16.351562 35.921875 16.328125 C 35.953125 16.320312 35.988281 16.335938 35.996094 16.359375 C 36.050781 16.511719 36.101562 16.667969 36.15625 16.824219 Z M 35.136719 16.089844 C 35.167969 16.203125 35.078125 16.320312 34.9375 16.351562 C 33.453125 16.703125 32.015625 17.144531 30.703125 17.8125 C 30.578125 17.878906 30.492188 17.828125 30.507812 17.699219 C 30.625 16.753906 30.738281 15.804688 30.855469 14.855469 C 30.871094 14.730469 30.957031 14.585938 31.046875 14.539062 C 32.027344 14.042969 33.097656 13.710938 34.203125 13.449219 C 34.308594 13.425781 34.417969 13.496094 34.449219 13.605469 C 34.679688 14.433594 34.90625 15.261719 35.136719 16.089844 Z M 34.929688 17.097656 C 34.9375 17.125 34.914062 17.152344 34.882812 17.160156 C 34.753906 17.191406 34.625 17.222656 34.5 17.253906 C 34.464844 17.265625 34.433594 17.25 34.429688 17.222656 C 34.398438 17.066406 34.367188 16.90625 34.335938 16.746094 C 34.332031 16.71875 34.355469 16.691406 34.386719 16.683594 C 34.507812 16.652344 34.628906 16.621094 34.75 16.59375 C 34.78125 16.585938 34.8125 16.597656 34.820312 16.625 C 34.855469 16.78125 34.894531 16.941406 34.929688 17.097656 Z M 33.730469 17.414062 C 33.734375 17.441406 33.707031 17.46875 33.675781 17.480469 C 33.550781 17.515625 33.425781 17.554688 33.300781 17.59375 C 33.269531 17.601562 33.242188 17.589844 33.238281 17.5625 C 33.222656 17.398438 33.207031 17.234375 33.191406 17.070312 C 33.191406 17.042969 33.214844 17.015625 33.242188 17.003906 C 33.363281 16.96875 33.480469 16.933594 33.601562 16.898438 C 33.632812 16.890625 33.660156 16.902344 33.664062 16.929688 C 33.6875 17.089844 33.707031 17.253906 33.730469 17.414062 Z M 32.558594 17.785156 C 32.558594 17.8125 32.535156 17.84375 32.5 17.855469 C 32.378906 17.898438 32.257812 17.945312 32.140625 17.988281 C 32.105469 18 32.082031 17.988281 32.082031 17.960938 C 32.082031 17.792969 32.082031 17.621094 32.082031 17.453125 C 32.082031 17.425781 32.105469 17.394531 32.136719 17.382812 C 32.25 17.339844 32.363281 17.296875 32.480469 17.257812 C 32.511719 17.246094 32.535156 17.257812 32.539062 17.285156 C 32.542969 17.453125 32.550781 17.621094 32.558594 17.785156 Z M 31.425781 18.230469 C 31.421875 18.257812 31.398438 18.289062 31.367188 18.304688 C 31.25 18.355469 31.132812 18.40625 31.019531 18.460938 C 30.988281 18.476562 30.964844 18.464844 30.96875 18.4375 C 30.980469 18.261719 30.996094 18.085938 31.007812 17.910156 C 31.011719 17.882812 31.039062 17.847656 31.066406 17.832031 C 31.175781 17.78125 31.285156 17.730469 31.398438 17.683594 C 31.429688 17.671875 31.449219 17.683594 31.449219 17.710938 C 31.441406 17.882812 31.433594 18.054688 31.425781 18.230469 Z M 30.882812 14.378906 C 30.878906 14.410156 30.859375 14.441406 30.839844 14.453125 C 30.765625 14.496094 30.6875 14.539062 30.613281 14.582031 C 30.59375 14.59375 30.582031 14.578125 30.585938 14.550781 C 30.613281 14.367188 30.644531 14.183594 30.671875 14 C 30.675781 13.96875 30.695312 13.9375 30.710938 13.925781 C 30.78125 13.886719 30.851562 13.847656 30.921875 13.808594 C 30.941406 13.796875 30.953125 13.8125 30.949219 13.839844 C 30.929688 14.019531 30.90625 14.199219 30.882812 14.378906 Z M 30.335938 18.753906 C 30.335938 18.785156 30.308594 18.820312 30.277344 18.835938 C 30.167969 18.898438 30.054688 18.960938 29.945312 19.023438 C 29.917969 19.042969 29.898438 19.03125 29.902344 19 C 29.929688 18.820312 29.957031 18.636719 29.988281 18.453125 C 29.992188 18.425781 30.015625 18.386719 30.042969 18.371094 C 30.148438 18.308594 30.253906 18.25 30.359375 18.191406 C 30.390625 18.175781 30.410156 18.1875 30.40625 18.214844 C 30.382812 18.394531 30.359375 18.574219 30.335938 18.753906 Z M 26.707031 21.339844 C 26.621094 21.472656 26.597656 21.449219 26.652344 21.285156 C 27.054688 20.070312 27.457031 18.855469 27.859375 17.640625 C 27.914062 17.480469 28.007812 17.265625 28.070312 17.167969 C 28.75 16.132812 29.589844 15.386719 30.53125 14.824219 C 30.621094 14.773438 30.679688 14.835938 30.660156 14.964844 C 30.527344 15.921875 30.394531 16.878906 30.257812 17.835938 C 30.242188 17.964844 30.128906 18.125 30.011719 18.195312 C 28.746094 18.949219 27.621094 19.953125 26.707031 21.339844 Z M 29.304688 19.378906 C 29.300781 19.410156 29.273438 19.449219 29.246094 19.46875 C 29.140625 19.542969 29.035156 19.617188 28.933594 19.691406 C 28.90625 19.710938 28.890625 19.703125 28.894531 19.671875 C 28.9375 19.480469 28.976562 19.289062 29.019531 19.097656 C 29.027344 19.066406 29.050781 19.027344 29.078125 19.007812 C 29.175781 18.933594 29.277344 18.863281 29.375 18.792969 C 29.402344 18.777344 29.417969 18.785156 29.414062 18.816406 C 29.378906 19.003906 29.34375 19.191406 29.304688 19.378906 Z M 28.335938 20.117188 C 28.328125 20.148438 28.300781 20.195312 28.277344 20.214844 C 28.179688 20.300781 28.082031 20.390625 27.984375 20.476562 C 27.960938 20.5 27.945312 20.496094 27.957031 20.460938 C 28.007812 20.261719 28.0625 20.058594 28.117188 19.855469 C 28.125 19.824219 28.152344 19.78125 28.175781 19.757812 C 28.265625 19.671875 28.359375 19.589844 28.453125 19.507812 C 28.476562 19.484375 28.492188 19.496094 28.484375 19.527344 C 28.433594 19.722656 28.386719 19.921875 28.335938 20.117188 Z M 27.441406 20.984375 C 27.429688 21.019531 27.402344 21.066406 27.378906 21.09375 C 27.289062 21.191406 27.199219 21.292969 27.113281 21.398438 C 27.089844 21.425781 27.078125 21.421875 27.089844 21.386719 C 27.152344 21.171875 27.21875 20.957031 27.285156 20.746094 C 27.292969 20.710938 27.320312 20.660156 27.34375 20.632812 C 27.425781 20.535156 27.511719 20.4375 27.597656 20.34375 C 27.621094 20.320312 27.628906 20.324219 27.621094 20.359375 C 27.558594 20.566406 27.5 20.777344 27.441406 20.984375 Z M 26.621094 21.996094 C 26.609375 22.03125 26.582031 22.082031 26.5625 22.113281 C 26.480469 22.230469 26.398438 22.347656 26.320312 22.46875 C 26.300781 22.5 26.292969 22.496094 26.304688 22.460938 C 26.378906 22.230469 26.457031 22.003906 26.53125 21.773438 C 26.542969 21.738281 26.570312 21.683594 26.589844 21.65625 C 26.664062 21.539062 26.738281 21.425781 26.816406 21.316406 C 26.835938 21.289062 26.84375 21.292969 26.832031 21.328125 C 26.761719 21.550781 26.691406 21.773438 26.621094 21.996094 Z M 28.355469 16.226562 C 28.367188 16.1875 28.386719 16.144531 28.402344 16.121094 C 28.453125 16.046875 28.503906 15.972656 28.554688 15.898438 C 28.566406 15.878906 28.570312 15.890625 28.558594 15.925781 C 28.488281 16.148438 28.417969 16.371094 28.347656 16.59375 C 28.335938 16.628906 28.3125 16.671875 28.296875 16.695312 C 28.242188 16.773438 28.1875 16.855469 28.132812 16.9375 C 28.121094 16.957031 28.117188 16.945312 28.128906 16.910156 C 28.207031 16.683594 28.28125 16.453125 28.355469 16.226562 Z M 28.859375 15.535156 C 28.871094 15.5 28.890625 15.457031 28.90625 15.441406 C 28.960938 15.375 29.019531 15.308594 29.074219 15.246094 C 29.089844 15.230469 29.09375 15.242188 29.085938 15.277344 C 29.027344 15.484375 28.964844 15.695312 28.90625 15.902344 C 28.894531 15.9375 28.875 15.980469 28.859375 15.996094 C 28.796875 16.066406 28.734375 16.132812 28.675781 16.207031 C 28.660156 16.222656 28.65625 16.210938 28.664062 16.175781 C 28.730469 15.964844 28.796875 15.75 28.859375 15.535156 Z M 29.417969 14.941406 C 29.425781 14.90625 29.445312 14.871094 29.460938 14.855469 C 29.523438 14.796875 29.585938 14.742188 29.648438 14.6875 C 29.664062 14.671875 29.671875 14.6875 29.664062 14.71875 C 29.613281 14.917969 29.566406 15.113281 29.519531 15.3125 C 29.511719 15.34375 29.488281 15.382812 29.472656 15.398438 C 29.40625 15.453125 29.339844 15.515625 29.273438 15.574219 C 29.253906 15.59375 29.25 15.578125 29.257812 15.546875 C 29.3125 15.34375 29.363281 15.140625 29.417969 14.941406 Z M 30.023438 14.429688 C 30.03125 14.402344 30.046875 14.367188 30.066406 14.351562 C 30.132812 14.304688 30.199219 14.257812 30.265625 14.210938 C 30.28125 14.199219 30.292969 14.214844 30.285156 14.242188 C 30.25 14.429688 30.214844 14.621094 30.179688 14.808594 C 30.171875 14.835938 30.152344 14.871094 30.132812 14.886719 C 30.0625 14.933594 29.992188 14.984375 29.921875 15.039062 C 29.902344 15.050781 29.894531 15.039062 29.898438 15.007812 C 29.941406 14.816406 29.980469 14.625 30.023438 14.429688 Z M 31.355469 13.636719 C 31.359375 13.609375 31.375 13.578125 31.394531 13.570312 C 31.46875 13.535156 31.542969 13.5 31.617188 13.46875 C 31.636719 13.460938 31.652344 13.476562 31.652344 13.503906 C 31.640625 13.675781 31.632812 13.847656 31.625 14.019531 C 31.625 14.050781 31.605469 14.078125 31.585938 14.089844 C 31.503906 14.125 31.425781 14.160156 31.347656 14.195312 C 31.328125 14.207031 31.3125 14.191406 31.3125 14.164062 C 31.328125 13.988281 31.34375 13.8125 31.355469 13.636719 Z M 32.074219 13.332031 C 32.074219 13.304688 32.089844 13.273438 32.109375 13.265625 C 32.1875 13.238281 32.261719 13.210938 32.339844 13.183594 C 32.363281 13.175781 32.378906 13.191406 32.378906 13.21875 C 32.386719 13.386719 32.394531 13.550781 32.398438 13.71875 C 32.402344 13.746094 32.382812 13.773438 32.363281 13.78125 C 32.277344 13.8125 32.195312 13.84375 32.113281 13.871094 C 32.09375 13.882812 32.074219 13.867188 32.074219 13.839844 C 32.074219 13.667969 32.074219 13.5 32.074219 13.332031 Z M 32.816406 13.074219 C 32.816406 13.046875 32.832031 13.019531 32.851562 13.015625 C 32.929688 12.988281 33.011719 12.964844 33.089844 12.941406 C 33.109375 12.9375 33.128906 12.953125 33.132812 12.980469 C 33.15625 13.140625 33.175781 13.304688 33.199219 13.464844 C 33.203125 13.492188 33.1875 13.519531 33.164062 13.523438 C 33.078125 13.550781 32.996094 13.574219 32.910156 13.601562 C 32.886719 13.609375 32.867188 13.59375 32.863281 13.566406 C 32.847656 13.402344 32.832031 13.238281 32.816406 13.074219 Z M 33.585938 12.855469 C 33.578125 12.832031 33.59375 12.804688 33.613281 12.800781 C 33.695312 12.777344 33.777344 12.757812 33.859375 12.738281 C 33.878906 12.734375 33.902344 12.75 33.90625 12.773438 C 33.945312 12.933594 33.984375 13.089844 34.019531 13.25 C 34.027344 13.273438 34.011719 13.300781 33.988281 13.304688 C 33.902344 13.328125 33.816406 13.347656 33.726562 13.371094 C 33.707031 13.378906 33.683594 13.359375 33.675781 13.335938 C 33.648438 13.175781 33.617188 13.015625 33.585938 12.855469 Z M 34.367188 12.667969 C 34.359375 12.644531 34.371094 12.621094 34.394531 12.613281 C 34.476562 12.597656 34.558594 12.578125 34.640625 12.5625 C 34.664062 12.554688 34.6875 12.574219 34.695312 12.597656 C 34.75 12.75 34.804688 12.90625 34.855469 13.0625 C 34.867188 13.085938 34.851562 13.109375 34.832031 13.113281 C 34.742188 13.132812 34.652344 13.152344 34.5625 13.171875 C 34.539062 13.179688 34.515625 13.160156 34.507812 13.136719 C 34.460938 12.980469 34.414062 12.824219 34.367188 12.667969 Z M 35.164062 12.5 C 35.152344 12.476562 35.160156 12.453125 35.183594 12.449219 C 35.265625 12.433594 35.351562 12.417969 35.433594 12.398438 C 35.457031 12.394531 35.484375 12.414062 35.496094 12.4375 C 35.5625 12.585938 35.632812 12.738281 35.703125 12.890625 C 35.714844 12.914062 35.703125 12.9375 35.679688 12.941406 C 35.589844 12.960938 35.5 12.976562 35.410156 12.996094 C 35.386719 13 35.359375 12.984375 35.351562 12.960938 C 35.289062 12.808594 35.226562 12.65625 35.164062 12.5 Z M 35.964844 12.347656 C 35.949219 12.324219 35.957031 12.300781 35.980469 12.296875 C 36.0625 12.28125 36.148438 12.261719 36.230469 12.246094 C 36.253906 12.242188 36.28125 12.257812 36.296875 12.28125 C 36.382812 12.429688 36.46875 12.578125 36.554688 12.726562 C 36.566406 12.75 36.558594 12.773438 36.535156 12.777344 C 36.445312 12.796875 36.355469 12.8125 36.265625 12.832031 C 36.242188 12.835938 36.214844 12.820312 36.199219 12.792969 C 36.121094 12.644531 36.042969 12.496094 35.964844 12.347656 Z M 38.191406 12.644531 C 38.296875 12.621094 38.449219 12.683594 38.53125 12.785156 C 39.152344 13.53125 39.773438 14.28125 40.394531 15.03125 C 40.476562 15.132812 40.429688 15.238281 40.289062 15.269531 C 38.785156 15.59375 37.246094 15.847656 35.742188 16.171875 C 35.601562 16.203125 35.457031 16.136719 35.425781 16.027344 C 35.175781 15.203125 34.925781 14.378906 34.675781 13.558594 C 34.640625 13.445312 34.699219 13.335938 34.804688 13.316406 C 35.921875 13.074219 37.070312 12.882812 38.191406 12.644531 Z M 36.765625 12.191406 C 36.75 12.167969 36.753906 12.148438 36.777344 12.144531 C 36.859375 12.125 36.945312 12.109375 37.027344 12.09375 C 37.050781 12.089844 37.082031 12.105469 37.097656 12.128906 C 37.199219 12.273438 37.300781 12.417969 37.402344 12.5625 C 37.417969 12.585938 37.414062 12.609375 37.390625 12.613281 C 37.300781 12.632812 37.210938 12.648438 37.121094 12.667969 C 37.097656 12.671875 37.066406 12.65625 37.050781 12.632812 C 36.957031 12.484375 36.859375 12.339844 36.765625 12.191406 Z M 38.351562 11.855469 C 38.332031 11.832031 38.332031 11.808594 38.351562 11.804688 C 38.433594 11.785156 38.515625 11.765625 38.597656 11.742188 C 38.617188 11.738281 38.652344 11.75 38.675781 11.773438 C 38.808594 11.910156 38.941406 12.050781 39.078125 12.1875 C 39.097656 12.210938 39.097656 12.230469 39.074219 12.238281 C 38.988281 12.261719 38.898438 12.28125 38.8125 12.304688 C 38.789062 12.308594 38.753906 12.296875 38.734375 12.273438 C 38.605469 12.132812 38.480469 11.992188 38.351562 11.855469 Z M 39.125 11.652344 C 39.101562 11.628906 39.101562 11.605469 39.121094 11.601562 C 39.203125 11.578125 39.28125 11.554688 39.359375 11.527344 C 39.382812 11.523438 39.417969 11.535156 39.441406 11.554688 C 39.589844 11.691406 39.742188 11.824219 39.890625 11.957031 C 39.914062 11.976562 39.914062 12 39.894531 12.007812 C 39.808594 12.035156 39.722656 12.058594 39.636719 12.085938 C 39.613281 12.089844 39.578125 12.078125 39.554688 12.058594 C 39.410156 11.921875 39.269531 11.785156 39.125 11.652344 Z M 39.878906 11.410156 C 39.855469 11.390625 39.851562 11.367188 39.871094 11.359375 C 39.949219 11.332031 40.023438 11.304688 40.101562 11.277344 C 40.121094 11.269531 40.160156 11.277344 40.1875 11.300781 C 40.351562 11.425781 40.515625 11.554688 40.679688 11.683594 C 40.707031 11.703125 40.710938 11.726562 40.6875 11.734375 C 40.605469 11.765625 40.523438 11.796875 40.441406 11.828125 C 40.417969 11.835938 40.378906 11.824219 40.355469 11.804688 C 40.195312 11.671875 40.039062 11.542969 39.878906 11.410156 Z M 40.609375 11.128906 C 40.582031 11.105469 40.574219 11.082031 40.59375 11.074219 C 40.667969 11.042969 40.742188 11.007812 40.816406 10.972656 C 40.835938 10.964844 40.875 10.972656 40.902344 10.992188 C 41.082031 11.117188 41.261719 11.238281 41.441406 11.359375 C 41.46875 11.378906 41.476562 11.402344 41.457031 11.414062 C 41.375 11.449219 41.296875 11.484375 41.21875 11.519531 C 41.195312 11.53125 41.15625 11.519531 41.128906 11.5 C 40.957031 11.375 40.78125 11.25 40.609375 11.128906 Z M 41.308594 10.789062 C 41.277344 10.769531 41.269531 10.746094 41.289062 10.734375 C 41.359375 10.695312 41.429688 10.65625 41.5 10.617188 C 41.519531 10.605469 41.558594 10.609375 41.589844 10.628906 C 41.78125 10.742188 41.976562 10.859375 42.167969 10.972656 C 42.199219 10.992188 42.207031 11.015625 42.1875 11.027344 C 42.113281 11.070312 42.039062 11.113281 41.960938 11.15625 C 41.941406 11.167969 41.902344 11.160156 41.871094 11.140625 C 41.683594 11.023438 41.496094 10.90625 41.308594 10.789062 Z M 41.972656 10.386719 C 41.941406 10.367188 41.929688 10.34375 41.945312 10.332031 C 42.011719 10.285156 42.082031 10.238281 42.144531 10.191406 C 42.164062 10.175781 42.203125 10.179688 42.238281 10.199219 C 42.441406 10.304688 42.648438 10.410156 42.855469 10.515625 C 42.886719 10.53125 42.898438 10.558594 42.882812 10.570312 C 42.8125 10.625 42.738281 10.675781 42.667969 10.722656 C 42.648438 10.738281 42.605469 10.734375 42.574219 10.714844 C 42.375 10.605469 42.171875 10.496094 41.972656 10.386719 Z M 42.597656 9.910156 C 42.5625 9.894531 42.546875 9.871094 42.5625 9.855469 C 42.625 9.800781 42.6875 9.746094 42.75 9.6875 C 42.765625 9.671875 42.808594 9.675781 42.84375 9.6875 C 43.058594 9.785156 43.277344 9.878906 43.496094 9.976562 C 43.53125 9.992188 43.546875 10.015625 43.53125 10.035156 C 43.464844 10.09375 43.398438 10.152344 43.332031 10.210938 C 43.3125 10.226562 43.269531 10.226562 43.234375 10.210938 C 43.023438 10.109375 42.808594 10.011719 42.597656 9.910156 Z M 43.175781 9.351562 C 43.136719 9.339844 43.121094 9.3125 43.136719 9.296875 C 43.195312 9.234375 43.25 9.167969 43.304688 9.101562 C 43.320312 9.085938 43.363281 9.082031 43.398438 9.09375 C 43.628906 9.179688 43.859375 9.261719 44.089844 9.34375 C 44.125 9.359375 44.140625 9.386719 44.125 9.402344 C 44.066406 9.476562 44.007812 9.542969 43.945312 9.613281 C 43.929688 9.628906 43.886719 9.632812 43.847656 9.617188 C 43.625 9.53125 43.398438 9.441406 43.175781 9.351562 Z M 43.699219 8.703125 C 43.664062 8.691406 43.644531 8.664062 43.65625 8.644531 C 43.710938 8.574219 43.761719 8.496094 43.8125 8.421875 C 43.824219 8.398438 43.867188 8.390625 43.902344 8.402344 C 44.144531 8.472656 44.382812 8.542969 44.625 8.613281 C 44.660156 8.625 44.683594 8.652344 44.667969 8.671875 C 44.613281 8.753906 44.558594 8.835938 44.503906 8.914062 C 44.488281 8.933594 44.445312 8.941406 44.40625 8.929688 C 44.171875 8.855469 43.9375 8.777344 43.699219 8.703125 Z M 28.328125 16.113281 C 27.542969 18.460938 26.757812 20.804688 25.972656 23.152344 C 31.542969 13.757812 45.464844 19.445312 51.035156 10.050781 C 48.585938 9.394531 46.136719 8.738281 43.6875 8.082031 C 40.273438 13.839844 31.742188 10.355469 28.328125 16.113281 " fill-opacity="1" fill-rule="nonzero"/></g></g></g><g clip-path="url(#bce21acb83)"><path fill="#000309" d="M 35.511719 20.074219 C 35.511719 20.875 35.433594 21.667969 35.277344 22.457031 C 35.121094 23.242188 34.890625 24.007812 34.582031 24.746094 C 34.277344 25.488281 33.898438 26.191406 33.453125 26.859375 C 33.007812 27.523438 32.503906 28.140625 31.9375 28.710938 C 31.367188 29.277344 30.75 29.78125 30.085938 30.226562 C 29.417969 30.671875 28.714844 31.050781 27.972656 31.355469 C 27.234375 31.664062 26.46875 31.894531 25.683594 32.050781 C 24.894531 32.207031 24.101562 32.285156 23.300781 32.285156 C 22.5 32.285156 21.703125 32.207031 20.917969 32.050781 C 20.132812 31.894531 19.367188 31.664062 18.625 31.355469 C 17.886719 31.050781 17.183594 30.671875 16.515625 30.226562 C 15.847656 29.78125 15.230469 29.277344 14.664062 28.710938 C 14.097656 28.140625 13.589844 27.523438 13.144531 26.859375 C 12.699219 26.191406 12.324219 25.488281 12.015625 24.746094 C 11.710938 24.007812 11.480469 23.242188 11.320312 22.457031 C 11.164062 21.667969 11.085938 20.875 11.085938 20.074219 C 11.085938 19.273438 11.164062 18.476562 11.320312 17.691406 C 11.480469 16.90625 11.710938 16.140625 12.015625 15.398438 C 12.324219 14.660156 12.699219 13.957031 13.144531 13.289062 C 13.589844 12.621094 14.097656 12.003906 14.664062 11.4375 C 15.230469 10.871094 15.847656 10.363281 16.515625 9.917969 C 17.183594 9.472656 17.886719 9.097656 18.625 8.789062 C 19.367188 8.484375 20.132812 8.253906 20.917969 8.09375 C 21.703125 7.9375 22.5 7.859375 23.300781 7.859375 C 24.101562 7.859375 24.894531 7.9375 25.683594 8.09375 C 26.46875 8.253906 27.234375 8.484375 27.972656 8.789062 C 28.714844 9.097656 29.417969 9.472656 30.085938 9.917969 C 30.75 10.363281 31.367188 10.871094 31.9375 11.4375 C 32.503906 12.003906 33.007812 12.621094 33.453125 13.289062 C 33.898438 13.957031 34.277344 14.660156 34.582031 15.398438 C 34.890625 16.140625 35.121094 16.90625 35.277344 17.691406 C 35.433594 18.476562 35.511719 19.273438 35.511719 20.074219 Z M 35.511719 20.074219 " fill-opacity="1" fill-rule="nonzero"/></g><path fill="#e8e8e8" d="M 34.304688 20.074219 C 34.304688 20.796875 34.234375 21.511719 34.09375 22.21875 C 33.953125 22.929688 33.742188 23.617188 33.46875 24.285156 C 33.191406 24.953125 32.851562 25.585938 32.449219 26.1875 C 32.050781 26.789062 31.59375 27.34375 31.082031 27.855469 C 30.570312 28.367188 30.015625 28.824219 29.414062 29.222656 C 28.8125 29.625 28.179688 29.964844 27.511719 30.242188 C 26.84375 30.515625 26.15625 30.726562 25.445312 30.867188 C 24.738281 31.007812 24.023438 31.078125 23.300781 31.078125 C 22.578125 31.078125 21.863281 31.007812 21.152344 30.867188 C 20.445312 30.726562 19.757812 30.515625 19.089844 30.242188 C 18.421875 29.964844 17.785156 29.625 17.1875 29.222656 C 16.585938 28.824219 16.027344 28.367188 15.519531 27.855469 C 15.007812 27.34375 14.550781 26.789062 14.148438 26.1875 C 13.75 25.585938 13.410156 24.953125 13.132812 24.285156 C 12.855469 23.617188 12.648438 22.929688 12.507812 22.21875 C 12.367188 21.511719 12.296875 20.796875 12.296875 20.074219 C 12.296875 19.351562 12.367188 18.636719 12.507812 17.925781 C 12.648438 17.21875 12.855469 16.53125 13.132812 15.863281 C 13.410156 15.195312 13.75 14.558594 14.148438 13.960938 C 14.550781 13.359375 15.007812 12.804688 15.519531 12.292969 C 16.027344 11.78125 16.585938 11.324219 17.1875 10.921875 C 17.785156 10.523438 18.421875 10.183594 19.089844 9.90625 C 19.757812 9.628906 20.445312 9.421875 21.152344 9.28125 C 21.863281 9.140625 22.578125 9.070312 23.300781 9.070312 C 24.023438 9.070312 24.738281 9.140625 25.445312 9.28125 C 26.15625 9.421875 26.84375 9.628906 27.511719 9.90625 C 28.179688 10.183594 28.8125 10.523438 29.414062 10.921875 C 30.015625 11.324219 30.570312 11.78125 31.082031 12.292969 C 31.59375 12.804688 32.050781 13.359375 32.449219 13.960938 C 32.851562 14.558594 33.191406 15.195312 33.46875 15.863281 C 33.742188 16.53125 33.953125 17.21875 34.09375 17.925781 C 34.234375 18.636719 34.304688 19.351562 34.304688 20.074219 Z M 34.304688 20.074219 " fill-opacity="1" fill-rule="nonzero"/><path fill="#000309" d="M 17.550781 17.199219 L 13.191406 19.695312 C 13.1875 19.820312 13.183594 19.949219 13.183594 20.074219 C 13.183594 23.523438 14.910156 26.566406 17.546875 28.394531 Z M 28.660156 16.527344 L 28.675781 11.503906 C 27.117188 10.523438 25.273438 9.957031 23.300781 9.957031 C 21.75 9.957031 20.277344 10.308594 18.964844 10.933594 Z M 17.9375 23.617188 L 17.925781 28.644531 C 19.480469 29.621094 21.324219 30.1875 23.300781 30.1875 C 24.851562 30.1875 26.320312 29.839844 27.636719 29.214844 Z M 22.90625 13.660156 L 13.214844 19.261719 C 13.496094 15.734375 15.585938 12.714844 18.558594 11.136719 Z M 23.695312 26.488281 L 33.382812 20.882812 C 33.105469 24.410156 31.015625 27.429688 28.042969 29.011719 Z M 29.046875 22.945312 L 33.40625 20.449219 C 33.414062 20.324219 33.414062 20.199219 33.414062 20.074219 C 33.414062 16.625 31.691406 13.578125 29.054688 11.753906 Z M 29.046875 22.945312 " fill-opacity="1" fill-rule="evenodd"/><path fill="#000309" d="M 21.921875 15.332031 C 24.539062 14.570312 27.28125 16.074219 28.042969 18.695312 C 28.804688 21.3125 27.296875 24.054688 24.679688 24.816406 C 22.058594 25.578125 19.320312 24.070312 18.558594 21.453125 C 17.796875 18.832031 19.300781 16.09375 21.921875 15.332031 Z M 21.921875 15.332031 " fill-opacity="1" fill-rule="evenodd"/><path fill="#e8e8e8" d="M 19.953125 19.042969 C 19.941406 19.273438 19.75 19.457031 19.515625 19.457031 C 19.28125 19.453125 19.066406 19.25 19.089844 19.007812 C 19.1875 17.917969 20.039062 16.925781 20.992188 16.445312 C 21.207031 16.335938 21.472656 16.445312 21.570312 16.664062 C 21.664062 16.882812 21.558594 17.125 21.351562 17.230469 C 20.730469 17.542969 20.089844 18.355469 19.953125 19.042969 Z M 19.953125 19.042969 " fill-opacity="1" fill-rule="evenodd"/><path fill="#e8e8e8" d="M 22.824219 16.207031 C 22.824219 16.328125 22.785156 16.429688 22.699219 16.515625 C 22.613281 16.601562 22.507812 16.644531 22.386719 16.644531 C 22.269531 16.644531 22.164062 16.601562 22.078125 16.515625 C 21.992188 16.429688 21.949219 16.328125 21.949219 16.207031 C 21.949219 16.085938 21.992188 15.980469 22.078125 15.898438 C 22.164062 15.8125 22.269531 15.769531 22.386719 15.769531 C 22.507812 15.769531 22.613281 15.8125 22.699219 15.898438 C 22.785156 15.980469 22.824219 16.085938 22.824219 16.207031 Z M 22.824219 16.207031 " fill-opacity="1" fill-rule="nonzero"/><g fill="#000309" fill-opacity="1"><g transform="translate(36.279295, 23.887535)"><g><path d="M 2.871094 -2.492188 L 3.03125 -2.515625 L 3.136719 -2.515625 C 3 -2.125 2.746094 -1.871094 2.503906 -1.871094 C 2.21875 -1.871094 2.042969 -2.195312 2.042969 -2.722656 C 2.042969 -3.492188 2.296875 -4.445312 2.6875 -5.167969 C 2.976562 -5.6875 3.285156 -5.949219 3.597656 -5.949219 C 3.8125 -5.949219 3.90625 -5.824219 3.90625 -5.503906 C 3.90625 -5.179688 3.90625 -5.179688 3.953125 -5.125 C 4.019531 -5.03125 4.148438 -4.996094 4.398438 -4.996094 C 4.90625 -4.996094 5.480469 -5.125 5.6875 -5.273438 C 5.847656 -5.375 5.90625 -5.539062 5.90625 -5.835938 C 5.90625 -6.113281 5.824219 -6.457031 5.6875 -6.71875 C 5.363281 -7.363281 4.722656 -7.71875 3.859375 -7.71875 C 2.917969 -7.71875 2.101562 -7.296875 1.449219 -6.46875 C 0.746094 -5.582031 0.195312 -3.871094 0.195312 -2.609375 C 0.195312 -1.070312 1.089844 0.0117188 2.390625 0.0117188 C 3.6875 0.0117188 4.800781 -1.089844 5.179688 -2.746094 C 5.398438 -2.78125 5.445312 -2.792969 5.515625 -2.847656 C 5.652344 -2.976562 5.847656 -3.675781 5.847656 -4.03125 C 5.847656 -4.308594 5.617188 -4.386719 4.894531 -4.386719 C 4.171875 -4.386719 3.171875 -4.226562 2.964844 -4.089844 C 2.78125 -3.964844 2.597656 -3.273438 2.597656 -2.746094 C 2.597656 -2.5625 2.640625 -2.492188 2.78125 -2.492188 Z M 2.871094 -2.492188 "/></g></g></g><g fill="#000309" fill-opacity="1"><g transform="translate(41.368574, 23.887535)"><g><path d="M 3.355469 -2 C 3.800781 -2.230469 4.007812 -2.355469 4.238281 -2.5625 C 4.628906 -2.90625 4.882812 -3.46875 4.882812 -3.996094 C 4.882812 -5.03125 3.988281 -5.722656 2.664062 -5.722656 C 2.042969 -5.722656 0.863281 -5.527344 0.6875 -5.386719 C 0.550781 -5.285156 0.308594 -4.59375 0.308594 -4.296875 C 0.308594 -4.160156 0.378906 -4.089844 0.503906 -4.089844 C 0.65625 -4.089844 0.839844 -4.136719 1.089844 -4.214844 C 0.941406 -3.6875 0.917969 -3.585938 0.6875 -2.78125 C 0.230469 -1.183594 0.0585938 -0.515625 0.0585938 -0.367188 C 0.0585938 -0.160156 0.5625 0.0117188 1.160156 0.0117188 C 1.367188 0.0117188 1.449219 -0.0117188 1.503906 -0.0820312 C 1.527344 -0.101562 1.574219 -0.289062 1.65625 -0.597656 L 1.953125 -1.816406 L 2.882812 -0.101562 C 3.148438 0.390625 3.296875 0.5625 3.433594 0.5625 C 3.574219 0.5625 3.847656 0.460938 4.136719 0.308594 C 4.410156 0.160156 4.539062 0.0234375 4.539062 -0.101562 C 4.539062 -0.207031 4.539062 -0.207031 4.285156 -0.574219 Z M 1.355469 -4.296875 C 1.871094 -4.433594 2.160156 -4.480469 2.46875 -4.480469 C 2.976562 -4.480469 3.34375 -4.214844 3.34375 -3.859375 C 3.34375 -3.410156 2.816406 -3 2.261719 -3 C 2.433594 -3.445312 2.492188 -3.640625 2.492188 -3.78125 C 2.492188 -4.019531 2.34375 -4.125 1.804688 -4.214844 C 1.699219 -4.238281 1.597656 -4.261719 1.480469 -4.273438 Z M 1.355469 -4.296875 "/></g></g></g><g fill="#000309" fill-opacity="1"><g transform="translate(45.38945, 23.887535)"><g><path d="M 1.664062 -1.402344 L 2.089844 -1.402344 C 2.296875 -1.402344 2.433594 -1.585938 2.621094 -2.101562 L 2.539062 -0.722656 L 2.539062 -0.597656 C 2.539062 -0.136719 2.699219 -0.0234375 3.332031 -0.0234375 C 3.871094 -0.0234375 4.007812 -0.136719 4.019531 -0.585938 C 4.019531 -0.667969 4.019531 -0.828125 4.03125 -1.070312 L 4.042969 -2.539062 C 4.042969 -3.503906 4.03125 -3.882812 3.953125 -4.894531 C 3.929688 -5.226562 3.882812 -5.410156 3.78125 -5.492188 C 3.664062 -5.582031 2.964844 -5.734375 2.621094 -5.734375 C 2.425781 -5.734375 2.320312 -5.675781 2.183594 -5.480469 C 2.035156 -5.285156 1.4375 -4.226562 1.195312 -3.746094 C 1.046875 -3.480469 0.90625 -3.207031 0.769531 -2.929688 C 0.757812 -2.894531 0.734375 -2.847656 0.710938 -2.824219 C 0.667969 -2.816406 0.644531 -2.816406 0.632812 -2.824219 L 0.484375 -2.824219 C 0.265625 -2.824219 0.160156 -2.769531 0.0585938 -2.597656 C -0.0703125 -2.378906 -0.207031 -1.828125 -0.207031 -1.574219 C -0.207031 -1.449219 -0.160156 -1.402344 0 -1.378906 L -0.160156 -1.046875 C -0.289062 -0.746094 -0.320312 -0.65625 -0.320312 -0.574219 C -0.320312 -0.472656 -0.265625 -0.378906 -0.160156 -0.308594 C 0.0820312 -0.160156 0.503906 -0.0351562 0.746094 -0.0351562 C 0.953125 -0.0351562 1.023438 -0.101562 1.207031 -0.472656 Z M 2.652344 -2.804688 L 2.136719 -2.816406 C 2.207031 -3 2.230469 -3.054688 2.402344 -3.445312 C 2.46875 -3.605469 2.539062 -3.757812 2.585938 -3.871094 C 2.628906 -3.988281 2.675781 -4.101562 2.734375 -4.214844 L 2.816406 -4.410156 C 2.804688 -4.308594 2.804688 -4.226562 2.792969 -4.203125 L 2.78125 -4.066406 C 2.734375 -3.699219 2.734375 -3.640625 2.710938 -3.402344 L 2.664062 -2.964844 Z M 2.652344 -2.804688 "/></g></g></g><g fill="#000309" fill-opacity="1"><g transform="translate(49.203537, 23.887535)"><g><path d="M 2.171875 -2.640625 C 2.21875 -2.503906 2.238281 -2.414062 2.25 -2.355469 C 2.355469 -1.710938 2.390625 -1.664062 2.699219 -1.664062 C 3.457031 -1.664062 4.433594 -2.402344 4.710938 -3.195312 C 4.777344 -3.390625 4.882812 -3.929688 4.882812 -4.101562 C 4.882812 -4.550781 4.582031 -5.042969 4.136719 -5.34375 C 3.746094 -5.582031 3.238281 -5.722656 2.664062 -5.722656 C 2.042969 -5.722656 0.863281 -5.527344 0.6875 -5.386719 C 0.550781 -5.285156 0.308594 -4.59375 0.308594 -4.296875 C 0.308594 -4.160156 0.378906 -4.089844 0.503906 -4.089844 C 0.65625 -4.089844 0.839844 -4.136719 1.089844 -4.214844 C 0.941406 -3.6875 0.917969 -3.585938 0.6875 -2.78125 C 0.230469 -1.183594 0.0585938 -0.515625 0.0585938 -0.367188 C 0.0585938 -0.160156 0.5625 0.0117188 1.160156 0.0117188 C 1.46875 0.0117188 1.527344 -0.0351562 1.585938 -0.308594 C 1.597656 -0.355469 1.621094 -0.472656 1.65625 -0.597656 C 1.78125 -1.058594 1.859375 -1.355469 1.882812 -1.480469 C 1.976562 -1.839844 2.066406 -2.207031 2.148438 -2.574219 Z M 1.355469 -4.296875 C 1.871094 -4.433594 2.160156 -4.480469 2.46875 -4.480469 C 2.976562 -4.480469 3.34375 -4.214844 3.34375 -3.859375 C 3.34375 -3.421875 2.835938 -2.941406 2.34375 -2.929688 L 2.238281 -2.929688 C 2.425781 -3.410156 2.492188 -3.628906 2.492188 -3.78125 C 2.492188 -4.019531 2.34375 -4.125 1.804688 -4.214844 C 1.699219 -4.238281 1.597656 -4.261719 1.480469 -4.273438 Z M 1.355469 -4.296875 "/></g></g></g><g fill="#000309" fill-opacity="1"><g transform="translate(53.224412, 23.887535)"><g><path d="M 3.378906 -3.480469 L 2.355469 -3.503906 L 2.390625 -3.640625 L 2.585938 -4.273438 L 2.722656 -4.722656 C 2.859375 -5.136719 2.859375 -5.136719 2.859375 -5.226562 C 2.859375 -5.386719 2.769531 -5.503906 2.597656 -5.570312 C 2.390625 -5.652344 2.035156 -5.734375 1.847656 -5.734375 C 1.644531 -5.734375 1.503906 -5.640625 1.414062 -5.46875 C 1.34375 -5.320312 1.046875 -4.386719 0.894531 -3.835938 L 0.828125 -3.585938 L 0.804688 -3.503906 C 0.769531 -3.515625 0.734375 -3.515625 0.722656 -3.515625 C 0.539062 -3.515625 0.425781 -3.46875 0.355469 -3.367188 C 0.242188 -3.207031 0.0585938 -2.585938 0.0585938 -2.367188 C 0.0585938 -2.171875 0.136719 -2.089844 0.402344 -2.035156 L 0.378906 -1.929688 L 0.242188 -1.402344 C 0.046875 -0.679688 0.0234375 -0.550781 0.0234375 -0.449219 C 0.0234375 -0.332031 0.0820312 -0.277344 0.296875 -0.195312 C 0.503906 -0.113281 0.839844 -0.0585938 1.078125 -0.0585938 C 1.414062 -0.0585938 1.480469 -0.148438 1.632812 -0.78125 C 1.675781 -0.988281 1.722656 -1.160156 1.757812 -1.308594 C 1.894531 -1.847656 1.894531 -1.871094 1.929688 -2.035156 L 2.238281 -2.035156 C 2.640625 -2.023438 2.722656 -2.066406 3.054688 -2.574219 L 3.207031 -2.816406 C 3.214844 -2.824219 3.238281 -2.871094 3.285156 -2.941406 C 3.214844 -2.710938 3.195312 -2.652344 3.136719 -2.457031 C 2.757812 -1.183594 2.574219 -0.550781 2.574219 -0.4375 C 2.574219 -0.195312 2.917969 -0.0703125 3.574219 -0.0703125 C 3.964844 -0.0703125 4.007812 -0.101562 4.136719 -0.503906 C 4.492188 -1.675781 5.363281 -5.03125 5.363281 -5.238281 C 5.363281 -5.363281 5.285156 -5.480469 5.125 -5.539062 C 4.929688 -5.628906 4.398438 -5.734375 4.191406 -5.734375 C 3.964844 -5.734375 3.964844 -5.734375 3.734375 -4.835938 L 3.550781 -4.136719 C 3.503906 -3.964844 3.457031 -3.78125 3.410156 -3.597656 Z M 3.378906 -3.480469 "/></g></g></g><g fill="#000309" fill-opacity="1"><g transform="translate(57.635887, 23.887535)"><g><path d="M 1.710938 -5.742188 C 1.550781 -5.742188 1.46875 -5.734375 1.402344 -5.675781 C 1.308594 -5.605469 1.308594 -5.605469 0.976562 -4.605469 C 0.515625 -3.195312 -0.101562 -0.894531 -0.101562 -0.597656 C -0.101562 -0.449219 -0.0351562 -0.355469 0.148438 -0.265625 C 0.34375 -0.160156 0.757812 -0.0703125 1.023438 -0.0703125 C 1.425781 -0.0703125 1.503906 -0.113281 1.585938 -0.449219 C 1.609375 -0.503906 1.621094 -0.574219 1.644531 -0.644531 C 1.757812 -1.101562 1.859375 -1.539062 1.964844 -1.964844 C 2.101562 -2.492188 2.652344 -4.492188 2.722656 -4.710938 C 2.847656 -5.089844 2.882812 -5.226562 2.882812 -5.296875 C 2.882812 -5.570312 2.433594 -5.742188 1.710938 -5.742188 Z M 1.710938 -5.742188 "/></g></g></g><g fill="#000309" fill-opacity="1"><g transform="translate(59.508467, 23.887535)"><g><path d="M 4.367188 -4.972656 C 4.515625 -5.226562 4.5625 -5.320312 4.5625 -5.398438 C 4.5625 -5.570312 3.976562 -5.742188 3.402344 -5.742188 C 3.195312 -5.742188 3.113281 -5.699219 3.011719 -5.527344 C 2.804688 -5.179688 2.574219 -4.734375 2.332031 -4.125 C 2.308594 -4.214844 2.285156 -4.285156 2.273438 -4.320312 L 2.171875 -4.734375 C 1.964844 -5.503906 1.964844 -5.503906 1.882812 -5.546875 C 1.722656 -5.652344 1.265625 -5.753906 0.941406 -5.753906 C 0.515625 -5.753906 0.355469 -5.675781 0.355469 -5.457031 C 0.355469 -5.34375 0.402344 -5.191406 0.5625 -4.789062 C 0.609375 -4.675781 0.699219 -4.433594 0.828125 -4.089844 C 1.011719 -3.585938 1.125 -3.285156 1.285156 -2.929688 L -0.046875 -0.863281 C -0.253906 -0.527344 -0.277344 -0.492188 -0.277344 -0.425781 C -0.277344 -0.253906 0.320312 -0.046875 0.828125 -0.046875 C 1.320312 -0.046875 1.492188 -0.277344 2.011719 -1.597656 C 2.230469 -0.828125 2.296875 -0.609375 2.414062 -0.402344 C 2.5625 -0.136719 2.804688 -0.0234375 3.207031 -0.0234375 C 3.734375 -0.0234375 4.019531 -0.148438 4.019531 -0.367188 C 4.019531 -0.4375 3.988281 -0.550781 3.90625 -0.710938 C 3.550781 -1.460938 3.308594 -2.011719 3.011719 -2.792969 Z M 4.367188 -4.972656 "/></g></g></g><g fill="#000309" fill-opacity="1"><g transform="translate(62.918401, 23.887535)"><g/></g></g><g fill="#ffffff" fill-opacity="1"><g transform="translate(40.515881, 25.625949)"><g><path d="M 0.6875 0.015625 C 0.507812 0.015625 0.375 -0.0234375 0.28125 -0.109375 C 0.195312 -0.191406 0.15625 -0.316406 0.15625 -0.484375 L 0.15625 -1.3125 L 0.421875 -1.3125 L 0.421875 -0.484375 C 0.421875 -0.390625 0.441406 -0.316406 0.484375 -0.265625 C 0.523438 -0.222656 0.59375 -0.203125 0.6875 -0.203125 C 0.875 -0.203125 0.96875 -0.296875 0.96875 -0.484375 L 0.96875 -1.3125 L 1.21875 -1.3125 L 1.21875 -0.484375 C 1.21875 -0.316406 1.175781 -0.191406 1.09375 -0.109375 C 1.007812 -0.0234375 0.875 0.015625 0.6875 0.015625 Z M 0.6875 0.015625 "/></g></g></g><g fill="#ffffff" fill-opacity="1"><g transform="translate(41.89545, 25.625949)"><g><path d="M 0.140625 0 L 0.140625 -0.984375 L 0.375 -0.984375 L 0.375 -0.84375 L 0.390625 -0.828125 C 0.453125 -0.941406 0.554688 -1 0.703125 -1 C 0.804688 -1 0.882812 -0.96875 0.9375 -0.90625 C 1 -0.84375 1.03125 -0.753906 1.03125 -0.640625 L 1.03125 0 L 0.78125 0 L 0.78125 -0.609375 C 0.78125 -0.671875 0.765625 -0.71875 0.734375 -0.75 C 0.710938 -0.78125 0.671875 -0.796875 0.609375 -0.796875 C 0.546875 -0.796875 0.492188 -0.769531 0.453125 -0.71875 C 0.410156 -0.675781 0.390625 -0.609375 0.390625 -0.515625 L 0.390625 0 Z M 0.140625 0 "/></g></g></g><g fill="#ffffff" fill-opacity="1"><g transform="translate(43.045387, 25.625949)"><g><path d="M 0.40625 0.015625 C 0.320312 0.015625 0.253906 -0.00390625 0.203125 -0.046875 C 0.160156 -0.0976562 0.140625 -0.171875 0.140625 -0.265625 L 0.140625 -1.375 L 0.390625 -1.375 L 0.390625 -0.28125 C 0.390625 -0.21875 0.410156 -0.1875 0.453125 -0.1875 C 0.472656 -0.1875 0.488281 -0.191406 0.5 -0.203125 L 0.515625 -0.1875 L 0.53125 0 C 0.519531 0 0.503906 0 0.484375 0 C 0.460938 0.0078125 0.4375 0.015625 0.40625 0.015625 Z M 0.40625 0.015625 "/></g></g></g><g fill="#ffffff" fill-opacity="1"><g transform="translate(43.609675, 25.625949)"><g><path d="M 0.96875 -0.4375 L 0.34375 -0.4375 C 0.34375 -0.351562 0.363281 -0.289062 0.40625 -0.25 C 0.445312 -0.207031 0.503906 -0.1875 0.578125 -0.1875 C 0.640625 -0.1875 0.6875 -0.195312 0.71875 -0.21875 C 0.757812 -0.238281 0.789062 -0.269531 0.8125 -0.3125 L 0.828125 -0.3125 L 0.984375 -0.21875 C 0.953125 -0.144531 0.90625 -0.0859375 0.84375 -0.046875 C 0.78125 -0.00390625 0.691406 0.015625 0.578125 0.015625 C 0.484375 0.015625 0.394531 0 0.3125 -0.03125 C 0.238281 -0.0703125 0.179688 -0.128906 0.140625 -0.203125 C 0.109375 -0.285156 0.09375 -0.378906 0.09375 -0.484375 C 0.09375 -0.597656 0.113281 -0.691406 0.15625 -0.765625 C 0.195312 -0.847656 0.253906 -0.90625 0.328125 -0.9375 C 0.398438 -0.976562 0.476562 -1 0.5625 -1 C 0.707031 -1 0.816406 -0.960938 0.890625 -0.890625 C 0.960938 -0.816406 1 -0.707031 1 -0.5625 C 1 -0.507812 0.992188 -0.472656 0.984375 -0.453125 Z M 0.765625 -0.59375 C 0.753906 -0.664062 0.734375 -0.71875 0.703125 -0.75 C 0.671875 -0.789062 0.625 -0.8125 0.5625 -0.8125 C 0.4375 -0.8125 0.363281 -0.738281 0.34375 -0.59375 Z M 0.765625 -0.59375 "/></g></g></g><g fill="#ffffff" fill-opacity="1"><g transform="translate(44.676839, 25.625949)"><g><path d="M 0.390625 0.015625 C 0.328125 0.015625 0.269531 0.00390625 0.21875 -0.015625 C 0.175781 -0.0351562 0.140625 -0.0664062 0.109375 -0.109375 C 0.0859375 -0.160156 0.078125 -0.21875 0.078125 -0.28125 C 0.078125 -0.34375 0.0859375 -0.390625 0.109375 -0.421875 C 0.140625 -0.460938 0.179688 -0.492188 0.234375 -0.515625 C 0.285156 -0.546875 0.351562 -0.566406 0.4375 -0.578125 C 0.488281 -0.585938 0.53125 -0.597656 0.5625 -0.609375 C 0.59375 -0.617188 0.613281 -0.628906 0.625 -0.640625 C 0.632812 -0.660156 0.640625 -0.679688 0.640625 -0.703125 C 0.640625 -0.734375 0.628906 -0.753906 0.609375 -0.765625 C 0.585938 -0.785156 0.550781 -0.796875 0.5 -0.796875 C 0.445312 -0.796875 0.394531 -0.785156 0.34375 -0.765625 C 0.289062 -0.742188 0.25 -0.710938 0.21875 -0.671875 L 0.203125 -0.671875 L 0.09375 -0.828125 C 0.144531 -0.878906 0.207031 -0.921875 0.28125 -0.953125 C 0.351562 -0.984375 0.429688 -1 0.515625 -1 C 0.648438 -1 0.742188 -0.972656 0.796875 -0.921875 C 0.859375 -0.867188 0.890625 -0.789062 0.890625 -0.6875 L 0.890625 -0.25 C 0.890625 -0.207031 0.90625 -0.1875 0.9375 -0.1875 C 0.957031 -0.1875 0.972656 -0.191406 0.984375 -0.203125 L 1 -0.203125 L 1.015625 -0.015625 C 1.003906 -0.015625 0.984375 -0.0078125 0.953125 0 C 0.929688 0 0.90625 0 0.875 0 C 0.820312 0 0.773438 -0.0078125 0.734375 -0.03125 C 0.703125 -0.0507812 0.679688 -0.0859375 0.671875 -0.140625 L 0.65625 -0.140625 C 0.601562 -0.0351562 0.515625 0.015625 0.390625 0.015625 Z M 0.46875 -0.171875 C 0.519531 -0.171875 0.5625 -0.1875 0.59375 -0.21875 C 0.632812 -0.257812 0.65625 -0.316406 0.65625 -0.390625 L 0.65625 -0.484375 L 0.640625 -0.484375 C 0.617188 -0.472656 0.597656 -0.460938 0.578125 -0.453125 C 0.554688 -0.453125 0.519531 -0.445312 0.46875 -0.4375 C 0.414062 -0.425781 0.378906 -0.410156 0.359375 -0.390625 C 0.335938 -0.367188 0.328125 -0.335938 0.328125 -0.296875 C 0.328125 -0.253906 0.335938 -0.222656 0.359375 -0.203125 C 0.378906 -0.179688 0.414062 -0.171875 0.46875 -0.171875 Z M 0.46875 -0.171875 "/></g></g></g><g fill="#ffffff" fill-opacity="1"><g transform="translate(45.711962, 25.625949)"><g><path d="M 0.453125 0.015625 C 0.390625 0.015625 0.328125 0.0078125 0.265625 0 C 0.210938 -0.0195312 0.164062 -0.0390625 0.125 -0.0625 C 0.09375 -0.09375 0.0664062 -0.128906 0.046875 -0.171875 L 0.1875 -0.3125 L 0.203125 -0.3125 C 0.234375 -0.269531 0.269531 -0.238281 0.3125 -0.21875 C 0.363281 -0.195312 0.414062 -0.1875 0.46875 -0.1875 C 0.507812 -0.1875 0.539062 -0.191406 0.5625 -0.203125 C 0.59375 -0.222656 0.609375 -0.25 0.609375 -0.28125 C 0.609375 -0.300781 0.597656 -0.320312 0.578125 -0.34375 C 0.566406 -0.363281 0.539062 -0.378906 0.5 -0.390625 L 0.359375 -0.421875 C 0.265625 -0.441406 0.191406 -0.472656 0.140625 -0.515625 C 0.0976562 -0.566406 0.078125 -0.628906 0.078125 -0.703125 C 0.078125 -0.765625 0.09375 -0.816406 0.125 -0.859375 C 0.15625 -0.910156 0.195312 -0.945312 0.25 -0.96875 C 0.3125 -0.988281 0.382812 -1 0.46875 -1 C 0.550781 -1 0.617188 -0.984375 0.671875 -0.953125 C 0.734375 -0.929688 0.78125 -0.898438 0.8125 -0.859375 L 0.6875 -0.71875 L 0.671875 -0.71875 C 0.640625 -0.75 0.609375 -0.769531 0.578125 -0.78125 C 0.546875 -0.800781 0.507812 -0.8125 0.46875 -0.8125 C 0.363281 -0.8125 0.3125 -0.78125 0.3125 -0.71875 C 0.3125 -0.6875 0.320312 -0.660156 0.34375 -0.640625 C 0.363281 -0.628906 0.394531 -0.617188 0.4375 -0.609375 L 0.5625 -0.59375 C 0.65625 -0.570312 0.722656 -0.535156 0.765625 -0.484375 C 0.816406 -0.441406 0.84375 -0.378906 0.84375 -0.296875 C 0.84375 -0.234375 0.828125 -0.175781 0.796875 -0.125 C 0.765625 -0.0820312 0.71875 -0.046875 0.65625 -0.015625 C 0.601562 0.00390625 0.535156 0.015625 0.453125 0.015625 Z M 0.453125 0.015625 "/></g></g></g><g fill="#ffffff" fill-opacity="1"><g transform="translate(46.617138, 25.625949)"><g><path d="M 0.140625 0 L 0.140625 -1.375 L 0.390625 -1.375 L 0.390625 -0.859375 L 0.40625 -0.859375 C 0.4375 -0.898438 0.472656 -0.929688 0.515625 -0.953125 C 0.566406 -0.984375 0.628906 -1 0.703125 -1 C 0.921875 -1 1.03125 -0.878906 1.03125 -0.640625 L 1.03125 0 L 0.78125 0 L 0.78125 -0.609375 C 0.78125 -0.671875 0.765625 -0.71875 0.734375 -0.75 C 0.710938 -0.78125 0.671875 -0.796875 0.609375 -0.796875 C 0.546875 -0.796875 0.492188 -0.769531 0.453125 -0.71875 C 0.410156 -0.675781 0.390625 -0.609375 0.390625 -0.515625 L 0.390625 0 Z M 0.140625 0 "/></g></g></g><g fill="#ffffff" fill-opacity="1"><g transform="translate(47.767075, 25.625949)"><g><path d="M 0.265625 -1.109375 C 0.222656 -1.109375 0.1875 -1.117188 0.15625 -1.140625 C 0.125 -1.171875 0.109375 -1.207031 0.109375 -1.25 C 0.109375 -1.289062 0.125 -1.320312 0.15625 -1.34375 C 0.1875 -1.375 0.222656 -1.390625 0.265625 -1.390625 C 0.296875 -1.390625 0.320312 -1.382812 0.34375 -1.375 C 0.363281 -1.363281 0.378906 -1.347656 0.390625 -1.328125 C 0.410156 -1.304688 0.421875 -1.28125 0.421875 -1.25 C 0.421875 -1.21875 0.410156 -1.191406 0.390625 -1.171875 C 0.378906 -1.148438 0.363281 -1.132812 0.34375 -1.125 C 0.320312 -1.113281 0.296875 -1.109375 0.265625 -1.109375 Z M 0.140625 0 L 0.140625 -0.984375 L 0.390625 -0.984375 L 0.390625 0 Z M 0.140625 0 "/></g></g></g><g fill="#ffffff" fill-opacity="1"><g transform="translate(48.295761, 25.625949)"><g><path d="M 0.140625 0 L 0.140625 -0.984375 L 0.375 -0.984375 L 0.375 -0.84375 L 0.390625 -0.828125 C 0.453125 -0.941406 0.554688 -1 0.703125 -1 C 0.804688 -1 0.882812 -0.96875 0.9375 -0.90625 C 1 -0.84375 1.03125 -0.753906 1.03125 -0.640625 L 1.03125 0 L 0.78125 0 L 0.78125 -0.609375 C 0.78125 -0.671875 0.765625 -0.71875 0.734375 -0.75 C 0.710938 -0.78125 0.671875 -0.796875 0.609375 -0.796875 C 0.546875 -0.796875 0.492188 -0.769531 0.453125 -0.71875 C 0.410156 -0.675781 0.390625 -0.609375 0.390625 -0.515625 L 0.390625 0 Z M 0.140625 0 "/></g></g></g><g fill="#ffffff" fill-opacity="1"><g transform="translate(49.445699, 25.625949)"><g><path d="M 0.515625 0.421875 C 0.347656 0.421875 0.222656 0.394531 0.140625 0.34375 C 0.0664062 0.300781 0.03125 0.234375 0.03125 0.140625 C 0.03125 0.0859375 0.046875 0.046875 0.078125 0.015625 C 0.117188 -0.015625 0.171875 -0.0351562 0.234375 -0.046875 L 0.234375 -0.0625 C 0.191406 -0.0820312 0.164062 -0.101562 0.15625 -0.125 C 0.144531 -0.15625 0.140625 -0.1875 0.140625 -0.21875 C 0.140625 -0.300781 0.1875 -0.351562 0.28125 -0.375 L 0.28125 -0.390625 C 0.226562 -0.421875 0.1875 -0.457031 0.15625 -0.5 C 0.132812 -0.550781 0.125 -0.609375 0.125 -0.671875 C 0.125 -0.734375 0.140625 -0.789062 0.171875 -0.84375 C 0.203125 -0.894531 0.242188 -0.929688 0.296875 -0.953125 C 0.359375 -0.984375 0.429688 -1 0.515625 -1 C 0.597656 -1 0.660156 -0.984375 0.703125 -0.953125 C 0.734375 -1.003906 0.753906 -1.054688 0.765625 -1.109375 L 0.78125 -1.125 L 0.953125 -1.078125 C 0.953125 -1.035156 0.941406 -1 0.921875 -0.96875 C 0.898438 -0.9375 0.863281 -0.90625 0.8125 -0.875 L 0.8125 -0.859375 C 0.863281 -0.804688 0.890625 -0.738281 0.890625 -0.65625 C 0.890625 -0.59375 0.875 -0.535156 0.84375 -0.484375 C 0.820312 -0.441406 0.78125 -0.40625 0.71875 -0.375 C 0.664062 -0.34375 0.597656 -0.328125 0.515625 -0.328125 L 0.46875 -0.328125 C 0.445312 -0.335938 0.429688 -0.34375 0.421875 -0.34375 C 0.398438 -0.34375 0.382812 -0.332031 0.375 -0.3125 C 0.363281 -0.300781 0.359375 -0.285156 0.359375 -0.265625 C 0.359375 -0.242188 0.363281 -0.226562 0.375 -0.21875 C 0.394531 -0.207031 0.421875 -0.203125 0.453125 -0.203125 L 0.671875 -0.203125 C 0.890625 -0.191406 1 -0.0976562 1 0.078125 C 1 0.148438 0.984375 0.207031 0.953125 0.25 C 0.921875 0.300781 0.867188 0.34375 0.796875 0.375 C 0.722656 0.40625 0.628906 0.421875 0.515625 0.421875 Z M 0.515625 -0.5 C 0.554688 -0.5 0.59375 -0.515625 0.625 -0.546875 C 0.65625 -0.578125 0.671875 -0.617188 0.671875 -0.671875 C 0.671875 -0.722656 0.65625 -0.757812 0.625 -0.78125 C 0.59375 -0.8125 0.554688 -0.828125 0.515625 -0.828125 C 0.460938 -0.828125 0.421875 -0.8125 0.390625 -0.78125 C 0.367188 -0.757812 0.359375 -0.722656 0.359375 -0.671875 C 0.359375 -0.617188 0.367188 -0.578125 0.390625 -0.546875 C 0.421875 -0.515625 0.460938 -0.5 0.515625 -0.5 Z M 0.515625 0.234375 C 0.597656 0.234375 0.65625 0.222656 0.6875 0.203125 C 0.726562 0.179688 0.75 0.148438 0.75 0.109375 C 0.75 0.078125 0.738281 0.0507812 0.71875 0.03125 C 0.695312 0.0195312 0.664062 0.015625 0.625 0.015625 L 0.4375 0.015625 C 0.425781 0.015625 0.414062 0.0078125 0.40625 0 C 0.363281 0 0.328125 0.0078125 0.296875 0.03125 C 0.273438 0.0507812 0.265625 0.078125 0.265625 0.109375 C 0.265625 0.148438 0.285156 0.179688 0.328125 0.203125 C 0.367188 0.222656 0.429688 0.234375 0.515625 0.234375 Z M 0.515625 0.234375 "/></g></g></g><g fill="#ffffff" fill-opacity="1"><g transform="translate(50.46658, 25.625949)"><g/></g></g><g fill="#ffffff" fill-opacity="1"><g transform="translate(50.896473, 25.625949)"><g><path d="M 0.671875 0 L 0.390625 0 L 0.015625 -0.984375 L 0.28125 -0.984375 L 0.515625 -0.28125 L 0.546875 -0.28125 L 0.78125 -0.984375 L 1.046875 -0.984375 Z M 0.671875 0 "/></g></g></g><g fill="#ffffff" fill-opacity="1"><g transform="translate(51.952065, 25.625949)"><g><path d="M 0.265625 -1.109375 C 0.222656 -1.109375 0.1875 -1.117188 0.15625 -1.140625 C 0.125 -1.171875 0.109375 -1.207031 0.109375 -1.25 C 0.109375 -1.289062 0.125 -1.320312 0.15625 -1.34375 C 0.1875 -1.375 0.222656 -1.390625 0.265625 -1.390625 C 0.296875 -1.390625 0.320312 -1.382812 0.34375 -1.375 C 0.363281 -1.363281 0.378906 -1.347656 0.390625 -1.328125 C 0.410156 -1.304688 0.421875 -1.28125 0.421875 -1.25 C 0.421875 -1.21875 0.410156 -1.191406 0.390625 -1.171875 C 0.378906 -1.148438 0.363281 -1.132812 0.34375 -1.125 C 0.320312 -1.113281 0.296875 -1.109375 0.265625 -1.109375 Z M 0.140625 0 L 0.140625 -0.984375 L 0.390625 -0.984375 L 0.390625 0 Z M 0.140625 0 "/></g></g></g><g fill="#ffffff" fill-opacity="1"><g transform="translate(52.480752, 25.625949)"><g><path d="M 0.453125 0.015625 C 0.390625 0.015625 0.328125 0.0078125 0.265625 0 C 0.210938 -0.0195312 0.164062 -0.0390625 0.125 -0.0625 C 0.09375 -0.09375 0.0664062 -0.128906 0.046875 -0.171875 L 0.1875 -0.3125 L 0.203125 -0.3125 C 0.234375 -0.269531 0.269531 -0.238281 0.3125 -0.21875 C 0.363281 -0.195312 0.414062 -0.1875 0.46875 -0.1875 C 0.507812 -0.1875 0.539062 -0.191406 0.5625 -0.203125 C 0.59375 -0.222656 0.609375 -0.25 0.609375 -0.28125 C 0.609375 -0.300781 0.597656 -0.320312 0.578125 -0.34375 C 0.566406 -0.363281 0.539062 -0.378906 0.5 -0.390625 L 0.359375 -0.421875 C 0.265625 -0.441406 0.191406 -0.472656 0.140625 -0.515625 C 0.0976562 -0.566406 0.078125 -0.628906 0.078125 -0.703125 C 0.078125 -0.765625 0.09375 -0.816406 0.125 -0.859375 C 0.15625 -0.910156 0.195312 -0.945312 0.25 -0.96875 C 0.3125 -0.988281 0.382812 -1 0.46875 -1 C 0.550781 -1 0.617188 -0.984375 0.671875 -0.953125 C 0.734375 -0.929688 0.78125 -0.898438 0.8125 -0.859375 L 0.6875 -0.71875 L 0.671875 -0.71875 C 0.640625 -0.75 0.609375 -0.769531 0.578125 -0.78125 C 0.546875 -0.800781 0.507812 -0.8125 0.46875 -0.8125 C 0.363281 -0.8125 0.3125 -0.78125 0.3125 -0.71875 C 0.3125 -0.6875 0.320312 -0.660156 0.34375 -0.640625 C 0.363281 -0.628906 0.394531 -0.617188 0.4375 -0.609375 L 0.5625 -0.59375 C 0.65625 -0.570312 0.722656 -0.535156 0.765625 -0.484375 C 0.816406 -0.441406 0.84375 -0.378906 0.84375 -0.296875 C 0.84375 -0.234375 0.828125 -0.175781 0.796875 -0.125 C 0.765625 -0.0820312 0.71875 -0.046875 0.65625 -0.015625 C 0.601562 0.00390625 0.535156 0.015625 0.453125 0.015625 Z M 0.453125 0.015625 "/></g></g></g><g fill="#ffffff" fill-opacity="1"><g transform="translate(53.385928, 25.625949)"><g><path d="M 0.453125 0.015625 C 0.335938 0.015625 0.253906 -0.0078125 0.203125 -0.0625 C 0.148438 -0.125 0.125 -0.210938 0.125 -0.328125 L 0.125 -0.984375 L 0.375 -0.984375 L 0.375 -0.359375 C 0.375 -0.296875 0.382812 -0.25 0.40625 -0.21875 C 0.4375 -0.195312 0.476562 -0.1875 0.53125 -0.1875 C 0.601562 -0.1875 0.65625 -0.207031 0.6875 -0.25 C 0.726562 -0.300781 0.75 -0.375 0.75 -0.46875 L 0.75 -0.984375 L 1 -0.984375 L 1 0 L 0.765625 0 L 0.765625 -0.140625 L 0.734375 -0.15625 C 0.703125 -0.09375 0.664062 -0.046875 0.625 -0.015625 C 0.582031 0.00390625 0.523438 0.015625 0.453125 0.015625 Z M 0.453125 0.015625 "/></g></g></g><g fill="#ffffff" fill-opacity="1"><g transform="translate(54.521624, 25.625949)"><g><path d="M 0.390625 0.015625 C 0.328125 0.015625 0.269531 0.00390625 0.21875 -0.015625 C 0.175781 -0.0351562 0.140625 -0.0664062 0.109375 -0.109375 C 0.0859375 -0.160156 0.078125 -0.21875 0.078125 -0.28125 C 0.078125 -0.34375 0.0859375 -0.390625 0.109375 -0.421875 C 0.140625 -0.460938 0.179688 -0.492188 0.234375 -0.515625 C 0.285156 -0.546875 0.351562 -0.566406 0.4375 -0.578125 C 0.488281 -0.585938 0.53125 -0.597656 0.5625 -0.609375 C 0.59375 -0.617188 0.613281 -0.628906 0.625 -0.640625 C 0.632812 -0.660156 0.640625 -0.679688 0.640625 -0.703125 C 0.640625 -0.734375 0.628906 -0.753906 0.609375 -0.765625 C 0.585938 -0.785156 0.550781 -0.796875 0.5 -0.796875 C 0.445312 -0.796875 0.394531 -0.785156 0.34375 -0.765625 C 0.289062 -0.742188 0.25 -0.710938 0.21875 -0.671875 L 0.203125 -0.671875 L 0.09375 -0.828125 C 0.144531 -0.878906 0.207031 -0.921875 0.28125 -0.953125 C 0.351562 -0.984375 0.429688 -1 0.515625 -1 C 0.648438 -1 0.742188 -0.972656 0.796875 -0.921875 C 0.859375 -0.867188 0.890625 -0.789062 0.890625 -0.6875 L 0.890625 -0.25 C 0.890625 -0.207031 0.90625 -0.1875 0.9375 -0.1875 C 0.957031 -0.1875 0.972656 -0.191406 0.984375 -0.203125 L 1 -0.203125 L 1.015625 -0.015625 C 1.003906 -0.015625 0.984375 -0.0078125 0.953125 0 C 0.929688 0 0.90625 0 0.875 0 C 0.820312 0 0.773438 -0.0078125 0.734375 -0.03125 C 0.703125 -0.0507812 0.679688 -0.0859375 0.671875 -0.140625 L 0.65625 -0.140625 C 0.601562 -0.0351562 0.515625 0.015625 0.390625 0.015625 Z M 0.46875 -0.171875 C 0.519531 -0.171875 0.5625 -0.1875 0.59375 -0.21875 C 0.632812 -0.257812 0.65625 -0.316406 0.65625 -0.390625 L 0.65625 -0.484375 L 0.640625 -0.484375 C 0.617188 -0.472656 0.597656 -0.460938 0.578125 -0.453125 C 0.554688 -0.453125 0.519531 -0.445312 0.46875 -0.4375 C 0.414062 -0.425781 0.378906 -0.410156 0.359375 -0.390625 C 0.335938 -0.367188 0.328125 -0.335938 0.328125 -0.296875 C 0.328125 -0.253906 0.335938 -0.222656 0.359375 -0.203125 C 0.378906 -0.179688 0.414062 -0.171875 0.46875 -0.171875 Z M 0.46875 -0.171875 "/></g></g></g><g fill="#ffffff" fill-opacity="1"><g transform="translate(55.556747, 25.625949)"><g><path d="M 0.40625 0.015625 C 0.320312 0.015625 0.253906 -0.00390625 0.203125 -0.046875 C 0.160156 -0.0976562 0.140625 -0.171875 0.140625 -0.265625 L 0.140625 -1.375 L 0.390625 -1.375 L 0.390625 -0.28125 C 0.390625 -0.21875 0.410156 -0.1875 0.453125 -0.1875 C 0.472656 -0.1875 0.488281 -0.191406 0.5 -0.203125 L 0.515625 -0.1875 L 0.53125 0 C 0.519531 0 0.503906 0 0.484375 0 C 0.460938 0.0078125 0.4375 0.015625 0.40625 0.015625 Z M 0.40625 0.015625 "/></g></g></g><g fill="#ffffff" fill-opacity="1"><g transform="translate(56.121035, 25.625949)"><g/></g></g><g fill="#ffffff" fill-opacity="1"><g transform="translate(56.550927, 25.625949)"><g><path d="M 0.40625 0 L 0.171875 0 L 0.171875 -1.3125 L 0.5 -1.3125 L 0.84375 -0.34375 L 0.859375 -0.34375 L 1.1875 -1.3125 L 1.515625 -1.3125 L 1.515625 0 L 1.265625 0 L 1.265625 -0.859375 L 1.25 -0.859375 L 0.9375 0 L 0.734375 0 L 0.421875 -0.859375 L 0.40625 -0.859375 Z M 0.40625 0 "/></g></g></g><g fill="#ffffff" fill-opacity="1"><g transform="translate(58.230442, 25.625949)"><g><path d="M 0.390625 0.015625 C 0.328125 0.015625 0.269531 0.00390625 0.21875 -0.015625 C 0.175781 -0.0351562 0.140625 -0.0664062 0.109375 -0.109375 C 0.0859375 -0.160156 0.078125 -0.21875 0.078125 -0.28125 C 0.078125 -0.34375 0.0859375 -0.390625 0.109375 -0.421875 C 0.140625 -0.460938 0.179688 -0.492188 0.234375 -0.515625 C 0.285156 -0.546875 0.351562 -0.566406 0.4375 -0.578125 C 0.488281 -0.585938 0.53125 -0.597656 0.5625 -0.609375 C 0.59375 -0.617188 0.613281 -0.628906 0.625 -0.640625 C 0.632812 -0.660156 0.640625 -0.679688 0.640625 -0.703125 C 0.640625 -0.734375 0.628906 -0.753906 0.609375 -0.765625 C 0.585938 -0.785156 0.550781 -0.796875 0.5 -0.796875 C 0.445312 -0.796875 0.394531 -0.785156 0.34375 -0.765625 C 0.289062 -0.742188 0.25 -0.710938 0.21875 -0.671875 L 0.203125 -0.671875 L 0.09375 -0.828125 C 0.144531 -0.878906 0.207031 -0.921875 0.28125 -0.953125 C 0.351562 -0.984375 0.429688 -1 0.515625 -1 C 0.648438 -1 0.742188 -0.972656 0.796875 -0.921875 C 0.859375 -0.867188 0.890625 -0.789062 0.890625 -0.6875 L 0.890625 -0.25 C 0.890625 -0.207031 0.90625 -0.1875 0.9375 -0.1875 C 0.957031 -0.1875 0.972656 -0.191406 0.984375 -0.203125 L 1 -0.203125 L 1.015625 -0.015625 C 1.003906 -0.015625 0.984375 -0.0078125 0.953125 0 C 0.929688 0 0.90625 0 0.875 0 C 0.820312 0 0.773438 -0.0078125 0.734375 -0.03125 C 0.703125 -0.0507812 0.679688 -0.0859375 0.671875 -0.140625 L 0.65625 -0.140625 C 0.601562 -0.0351562 0.515625 0.015625 0.390625 0.015625 Z M 0.46875 -0.171875 C 0.519531 -0.171875 0.5625 -0.1875 0.59375 -0.21875 C 0.632812 -0.257812 0.65625 -0.316406 0.65625 -0.390625 L 0.65625 -0.484375 L 0.640625 -0.484375 C 0.617188 -0.472656 0.597656 -0.460938 0.578125 -0.453125 C 0.554688 -0.453125 0.519531 -0.445312 0.46875 -0.4375 C 0.414062 -0.425781 0.378906 -0.410156 0.359375 -0.390625 C 0.335938 -0.367188 0.328125 -0.335938 0.328125 -0.296875 C 0.328125 -0.253906 0.335938 -0.222656 0.359375 -0.203125 C 0.378906 -0.179688 0.414062 -0.171875 0.46875 -0.171875 Z M 0.46875 -0.171875 "/></g></g></g><g fill="#ffffff" fill-opacity="1"><g transform="translate(59.265564, 25.625949)"><g><path d="M 0.453125 0.015625 C 0.390625 0.015625 0.328125 0.0078125 0.265625 0 C 0.210938 -0.0195312 0.164062 -0.0390625 0.125 -0.0625 C 0.09375 -0.09375 0.0664062 -0.128906 0.046875 -0.171875 L 0.1875 -0.3125 L 0.203125 -0.3125 C 0.234375 -0.269531 0.269531 -0.238281 0.3125 -0.21875 C 0.363281 -0.195312 0.414062 -0.1875 0.46875 -0.1875 C 0.507812 -0.1875 0.539062 -0.191406 0.5625 -0.203125 C 0.59375 -0.222656 0.609375 -0.25 0.609375 -0.28125 C 0.609375 -0.300781 0.597656 -0.320312 0.578125 -0.34375 C 0.566406 -0.363281 0.539062 -0.378906 0.5 -0.390625 L 0.359375 -0.421875 C 0.265625 -0.441406 0.191406 -0.472656 0.140625 -0.515625 C 0.0976562 -0.566406 0.078125 -0.628906 0.078125 -0.703125 C 0.078125 -0.765625 0.09375 -0.816406 0.125 -0.859375 C 0.15625 -0.910156 0.195312 -0.945312 0.25 -0.96875 C 0.3125 -0.988281 0.382812 -1 0.46875 -1 C 0.550781 -1 0.617188 -0.984375 0.671875 -0.953125 C 0.734375 -0.929688 0.78125 -0.898438 0.8125 -0.859375 L 0.6875 -0.71875 L 0.671875 -0.71875 C 0.640625 -0.75 0.609375 -0.769531 0.578125 -0.78125 C 0.546875 -0.800781 0.507812 -0.8125 0.46875 -0.8125 C 0.363281 -0.8125 0.3125 -0.78125 0.3125 -0.71875 C 0.3125 -0.6875 0.320312 -0.660156 0.34375 -0.640625 C 0.363281 -0.628906 0.394531 -0.617188 0.4375 -0.609375 L 0.5625 -0.59375 C 0.65625 -0.570312 0.722656 -0.535156 0.765625 -0.484375 C 0.816406 -0.441406 0.84375 -0.378906 0.84375 -0.296875 C 0.84375 -0.234375 0.828125 -0.175781 0.796875 -0.125 C 0.765625 -0.0820312 0.71875 -0.046875 0.65625 -0.015625 C 0.601562 0.00390625 0.535156 0.015625 0.453125 0.015625 Z M 0.453125 0.015625 "/></g></g></g><g fill="#ffffff" fill-opacity="1"><g transform="translate(60.17074, 25.625949)"><g><path d="M 0.671875 -0.234375 L 0.75 -0.046875 C 0.71875 -0.0234375 0.679688 -0.0078125 0.640625 0 C 0.597656 0.0078125 0.550781 0.015625 0.5 0.015625 C 0.394531 0.015625 0.3125 -0.0078125 0.25 -0.0625 C 0.195312 -0.125 0.171875 -0.210938 0.171875 -0.328125 L 0.171875 -0.796875 L 0.03125 -0.796875 L 0.03125 -0.984375 L 0.171875 -0.984375 L 0.171875 -1.171875 L 0.421875 -1.21875 L 0.421875 -0.984375 L 0.703125 -0.984375 L 0.703125 -0.796875 L 0.421875 -0.796875 L 0.421875 -0.34375 C 0.421875 -0.289062 0.429688 -0.253906 0.453125 -0.234375 C 0.472656 -0.210938 0.503906 -0.203125 0.546875 -0.203125 C 0.585938 -0.203125 0.625 -0.210938 0.65625 -0.234375 Z M 0.671875 -0.234375 "/></g></g></g><g fill="#ffffff" fill-opacity="1"><g transform="translate(60.933509, 25.625949)"><g><path d="M 0.96875 -0.4375 L 0.34375 -0.4375 C 0.34375 -0.351562 0.363281 -0.289062 0.40625 -0.25 C 0.445312 -0.207031 0.503906 -0.1875 0.578125 -0.1875 C 0.640625 -0.1875 0.6875 -0.195312 0.71875 -0.21875 C 0.757812 -0.238281 0.789062 -0.269531 0.8125 -0.3125 L 0.828125 -0.3125 L 0.984375 -0.21875 C 0.953125 -0.144531 0.90625 -0.0859375 0.84375 -0.046875 C 0.78125 -0.00390625 0.691406 0.015625 0.578125 0.015625 C 0.484375 0.015625 0.394531 0 0.3125 -0.03125 C 0.238281 -0.0703125 0.179688 -0.128906 0.140625 -0.203125 C 0.109375 -0.285156 0.09375 -0.378906 0.09375 -0.484375 C 0.09375 -0.597656 0.113281 -0.691406 0.15625 -0.765625 C 0.195312 -0.847656 0.253906 -0.90625 0.328125 -0.9375 C 0.398438 -0.976562 0.476562 -1 0.5625 -1 C 0.707031 -1 0.816406 -0.960938 0.890625 -0.890625 C 0.960938 -0.816406 1 -0.707031 1 -0.5625 C 1 -0.507812 0.992188 -0.472656 0.984375 -0.453125 Z M 0.765625 -0.59375 C 0.753906 -0.664062 0.734375 -0.71875 0.703125 -0.75 C 0.671875 -0.789062 0.625 -0.8125 0.5625 -0.8125 C 0.4375 -0.8125 0.363281 -0.738281 0.34375 -0.59375 Z M 0.765625 -0.59375 "/></g></g></g><g fill="#ffffff" fill-opacity="1"><g transform="translate(62.000673, 25.625949)"><g><path d="M 0.140625 0 L 0.140625 -0.984375 L 0.375 -0.984375 L 0.375 -0.84375 L 0.40625 -0.828125 C 0.425781 -0.890625 0.453125 -0.929688 0.484375 -0.953125 C 0.523438 -0.984375 0.578125 -1 0.640625 -1 C 0.691406 -1 0.734375 -0.988281 0.765625 -0.96875 L 0.71875 -0.75 L 0.703125 -0.75 C 0.679688 -0.757812 0.664062 -0.765625 0.65625 -0.765625 C 0.644531 -0.765625 0.628906 -0.765625 0.609375 -0.765625 C 0.535156 -0.765625 0.476562 -0.738281 0.4375 -0.6875 C 0.40625 -0.644531 0.390625 -0.566406 0.390625 -0.453125 L 0.390625 0 Z M 0.140625 0 "/></g></g></g><g fill="#ffffff" fill-opacity="1"><g transform="translate(62.770563, 25.625949)"><g><path d="M 0.21875 0.421875 C 0.175781 0.421875 0.132812 0.414062 0.09375 0.40625 C 0.0625 0.394531 0.0351562 0.382812 0.015625 0.375 L 0.0625 0.1875 L 0.078125 0.171875 C 0.0859375 0.179688 0.101562 0.1875 0.125 0.1875 C 0.144531 0.195312 0.171875 0.203125 0.203125 0.203125 C 0.242188 0.203125 0.273438 0.195312 0.296875 0.1875 C 0.328125 0.175781 0.347656 0.15625 0.359375 0.125 C 0.378906 0.101562 0.398438 0.0703125 0.421875 0.03125 L 0.015625 -0.984375 L 0.28125 -0.984375 L 0.53125 -0.296875 L 0.546875 -0.296875 L 0.78125 -0.984375 L 1.03125 -0.984375 L 0.640625 0.0625 C 0.609375 0.144531 0.570312 0.210938 0.53125 0.265625 C 0.5 0.316406 0.457031 0.351562 0.40625 0.375 C 0.351562 0.40625 0.289062 0.421875 0.21875 0.421875 Z M 0.21875 0.421875 "/></g></g></g><g fill="#ffffff" fill-opacity="1"><g transform="translate(45.751014, 17.292266)"><g><path d="M 1.15625 0.03125 C 0.96875 0.03125 0.800781 0.0078125 0.65625 -0.03125 C 0.519531 -0.0703125 0.40625 -0.128906 0.3125 -0.203125 C 0.21875 -0.273438 0.148438 -0.351562 0.109375 -0.4375 L 0.390625 -0.78125 L 0.4375 -0.78125 C 0.507812 -0.664062 0.601562 -0.570312 0.71875 -0.5 C 0.84375 -0.4375 0.988281 -0.40625 1.15625 -0.40625 C 1.289062 -0.40625 1.390625 -0.429688 1.453125 -0.484375 C 1.523438 -0.546875 1.5625 -0.628906 1.5625 -0.734375 C 1.5625 -0.796875 1.550781 -0.847656 1.53125 -0.890625 C 1.507812 -0.929688 1.472656 -0.96875 1.421875 -1 C 1.367188 -1.03125 1.296875 -1.054688 1.203125 -1.078125 L 0.875 -1.140625 C 0.644531 -1.203125 0.472656 -1.289062 0.359375 -1.40625 C 0.242188 -1.53125 0.1875 -1.691406 0.1875 -1.890625 C 0.1875 -2.035156 0.222656 -2.164062 0.296875 -2.28125 C 0.367188 -2.394531 0.472656 -2.484375 0.609375 -2.546875 C 0.753906 -2.609375 0.925781 -2.640625 1.125 -2.640625 C 1.320312 -2.640625 1.488281 -2.613281 1.625 -2.5625 C 1.769531 -2.507812 1.894531 -2.425781 2 -2.3125 L 1.734375 -1.96875 L 1.703125 -1.96875 C 1.617188 -2.039062 1.53125 -2.097656 1.4375 -2.140625 C 1.34375 -2.179688 1.238281 -2.203125 1.125 -2.203125 C 0.976562 -2.203125 0.867188 -2.175781 0.796875 -2.125 C 0.722656 -2.070312 0.6875 -2.003906 0.6875 -1.921875 C 0.6875 -1.835938 0.710938 -1.769531 0.765625 -1.71875 C 0.816406 -1.664062 0.90625 -1.628906 1.03125 -1.609375 L 1.375 -1.53125 C 1.625 -1.476562 1.804688 -1.390625 1.921875 -1.265625 C 2.035156 -1.140625 2.09375 -0.972656 2.09375 -0.765625 C 2.09375 -0.597656 2.054688 -0.453125 1.984375 -0.328125 C 1.910156 -0.210938 1.800781 -0.125 1.65625 -0.0625 C 1.519531 0 1.351562 0.03125 1.15625 0.03125 Z M 1.15625 0.03125 "/></g></g></g><g fill="#ffffff" fill-opacity="1"><g transform="translate(48.69798, 17.292266)"><g><path d="M 1.359375 -0.46875 L 1.484375 -0.109375 C 1.429688 -0.0546875 1.363281 -0.0195312 1.28125 0 C 1.195312 0.0195312 1.101562 0.03125 1 0.03125 C 0.789062 0.03125 0.628906 -0.0234375 0.515625 -0.140625 C 0.410156 -0.253906 0.359375 -0.421875 0.359375 -0.640625 L 0.359375 -1.578125 L 0.0625 -1.578125 L 0.0625 -1.96875 L 0.359375 -1.96875 L 0.359375 -2.34375 L 0.84375 -2.421875 L 0.84375 -1.96875 L 1.40625 -1.96875 L 1.40625 -1.578125 L 0.84375 -1.578125 L 0.84375 -0.671875 C 0.84375 -0.578125 0.863281 -0.503906 0.90625 -0.453125 C 0.945312 -0.410156 1.007812 -0.390625 1.09375 -0.390625 C 1.175781 -0.390625 1.25 -0.414062 1.3125 -0.46875 Z M 1.359375 -0.46875 "/></g></g></g><g fill="#ffffff" fill-opacity="1"><g transform="translate(50.934691, 17.292266)"><g><path d="M 0.890625 0.03125 C 0.671875 0.03125 0.507812 -0.0234375 0.40625 -0.140625 C 0.300781 -0.265625 0.25 -0.4375 0.25 -0.65625 L 0.25 -1.953125 L 0.75 -1.953125 L 0.75 -0.71875 C 0.75 -0.601562 0.773438 -0.515625 0.828125 -0.453125 C 0.878906 -0.398438 0.957031 -0.375 1.0625 -0.375 C 1.195312 -0.375 1.300781 -0.414062 1.375 -0.5 C 1.457031 -0.59375 1.5 -0.738281 1.5 -0.9375 L 1.5 -1.953125 L 1.984375 -1.953125 L 1.984375 0 L 1.515625 0 L 1.515625 -0.28125 L 1.46875 -0.296875 C 1.40625 -0.179688 1.328125 -0.0976562 1.234375 -0.046875 C 1.148438 0.00390625 1.035156 0.03125 0.890625 0.03125 Z M 0.890625 0.03125 "/></g></g></g><g fill="#ffffff" fill-opacity="1"><g transform="translate(53.917259, 17.292266)"><g><path d="M 0.96875 0.03125 C 0.8125 0.03125 0.671875 -0.00390625 0.546875 -0.078125 C 0.429688 -0.148438 0.335938 -0.257812 0.265625 -0.40625 C 0.203125 -0.5625 0.171875 -0.753906 0.171875 -0.984375 C 0.171875 -1.203125 0.207031 -1.382812 0.28125 -1.53125 C 0.351562 -1.6875 0.445312 -1.800781 0.5625 -1.875 C 0.6875 -1.957031 0.832031 -2 1 -2 C 1.113281 -2 1.210938 -1.976562 1.296875 -1.9375 C 1.390625 -1.894531 1.46875 -1.828125 1.53125 -1.734375 L 1.578125 -1.75 L 1.578125 -2.75 L 2.0625 -2.75 L 2.0625 0 L 1.578125 0 L 1.578125 -0.25 L 1.53125 -0.265625 C 1.476562 -0.171875 1.40625 -0.0976562 1.3125 -0.046875 C 1.21875 0.00390625 1.101562 0.03125 0.96875 0.03125 Z M 1.125 -0.375 C 1.269531 -0.375 1.378906 -0.421875 1.453125 -0.515625 C 1.535156 -0.617188 1.578125 -0.773438 1.578125 -0.984375 C 1.578125 -1.179688 1.535156 -1.328125 1.453125 -1.421875 C 1.378906 -1.523438 1.269531 -1.578125 1.125 -1.578125 C 0.976562 -1.578125 0.867188 -1.53125 0.796875 -1.4375 C 0.722656 -1.34375 0.6875 -1.191406 0.6875 -0.984375 C 0.6875 -0.773438 0.722656 -0.617188 0.796875 -0.515625 C 0.867188 -0.421875 0.976562 -0.375 1.125 -0.375 Z M 1.125 -0.375 "/></g></g></g><g fill="#ffffff" fill-opacity="1"><g transform="translate(56.98171, 17.292266)"><g><path d="M 0.53125 -2.203125 C 0.4375 -2.203125 0.363281 -2.226562 0.3125 -2.28125 C 0.257812 -2.332031 0.234375 -2.398438 0.234375 -2.484375 C 0.234375 -2.566406 0.257812 -2.632812 0.3125 -2.6875 C 0.363281 -2.738281 0.4375 -2.765625 0.53125 -2.765625 C 0.582031 -2.765625 0.628906 -2.753906 0.671875 -2.734375 C 0.722656 -2.710938 0.757812 -2.675781 0.78125 -2.625 C 0.8125 -2.582031 0.828125 -2.535156 0.828125 -2.484375 C 0.828125 -2.429688 0.8125 -2.378906 0.78125 -2.328125 C 0.757812 -2.285156 0.722656 -2.253906 0.671875 -2.234375 C 0.628906 -2.210938 0.582031 -2.203125 0.53125 -2.203125 Z M 0.28125 0 L 0.28125 -1.953125 L 0.78125 -1.953125 L 0.78125 0 Z M 0.28125 0 "/></g></g></g><g fill="#ffffff" fill-opacity="1"><g transform="translate(58.750258, 17.292266)"><g><path d="M 1.140625 0.03125 C 0.941406 0.03125 0.769531 -0.00390625 0.625 -0.078125 C 0.488281 -0.160156 0.378906 -0.273438 0.296875 -0.421875 C 0.210938 -0.578125 0.171875 -0.765625 0.171875 -0.984375 C 0.171875 -1.191406 0.210938 -1.375 0.296875 -1.53125 C 0.378906 -1.6875 0.488281 -1.800781 0.625 -1.875 C 0.769531 -1.957031 0.941406 -2 1.140625 -2 C 1.328125 -2 1.492188 -1.957031 1.640625 -1.875 C 1.785156 -1.800781 1.898438 -1.6875 1.984375 -1.53125 C 2.066406 -1.375 2.109375 -1.191406 2.109375 -0.984375 C 2.109375 -0.765625 2.066406 -0.578125 1.984375 -0.421875 C 1.898438 -0.273438 1.785156 -0.160156 1.640625 -0.078125 C 1.492188 -0.00390625 1.328125 0.03125 1.140625 0.03125 Z M 1.140625 -0.375 C 1.441406 -0.375 1.59375 -0.578125 1.59375 -0.984375 C 1.59375 -1.191406 1.550781 -1.34375 1.46875 -1.4375 C 1.394531 -1.53125 1.285156 -1.578125 1.140625 -1.578125 C 0.835938 -1.578125 0.6875 -1.378906 0.6875 -0.984375 C 0.6875 -0.578125 0.835938 -0.375 1.140625 -0.375 Z M 1.140625 -0.375 "/></g></g></g><g fill="#ffffff" fill-opacity="1"><g transform="translate(61.743506, 17.292266)"><g><path d="M 0.921875 0.03125 C 0.785156 0.03125 0.660156 0.015625 0.546875 -0.015625 C 0.429688 -0.046875 0.332031 -0.0859375 0.25 -0.140625 C 0.175781 -0.191406 0.125 -0.253906 0.09375 -0.328125 L 0.359375 -0.625 L 0.40625 -0.625 C 0.46875 -0.539062 0.539062 -0.472656 0.625 -0.421875 C 0.71875 -0.378906 0.816406 -0.359375 0.921875 -0.359375 C 1.015625 -0.359375 1.082031 -0.375 1.125 -0.40625 C 1.175781 -0.445312 1.203125 -0.5 1.203125 -0.5625 C 1.203125 -0.613281 1.1875 -0.65625 1.15625 -0.6875 C 1.125 -0.71875 1.066406 -0.742188 0.984375 -0.765625 L 0.734375 -0.828125 C 0.535156 -0.867188 0.390625 -0.9375 0.296875 -1.03125 C 0.210938 -1.132812 0.171875 -1.257812 0.171875 -1.40625 C 0.171875 -1.519531 0.203125 -1.625 0.265625 -1.71875 C 0.328125 -1.8125 0.410156 -1.878906 0.515625 -1.921875 C 0.628906 -1.972656 0.765625 -2 0.921875 -2 C 1.097656 -2 1.242188 -1.972656 1.359375 -1.921875 C 1.472656 -1.867188 1.5625 -1.800781 1.625 -1.71875 L 1.375 -1.4375 L 1.328125 -1.4375 C 1.273438 -1.5 1.210938 -1.539062 1.140625 -1.5625 C 1.078125 -1.59375 1.003906 -1.609375 0.921875 -1.609375 C 0.722656 -1.609375 0.625 -1.546875 0.625 -1.421875 C 0.625 -1.378906 0.640625 -1.335938 0.671875 -1.296875 C 0.710938 -1.265625 0.78125 -1.242188 0.875 -1.234375 L 1.109375 -1.171875 C 1.316406 -1.128906 1.460938 -1.0625 1.546875 -0.96875 C 1.640625 -0.875 1.6875 -0.75 1.6875 -0.59375 C 1.6875 -0.46875 1.65625 -0.359375 1.59375 -0.265625 C 1.53125 -0.171875 1.441406 -0.0976562 1.328125 -0.046875 C 1.210938 0.00390625 1.078125 0.03125 0.921875 0.03125 Z M 0.921875 0.03125 "/></g></g></g><path stroke-linecap="butt" transform="matrix(0.136764, 0, 0, 0.136764, 21.614763, 15.078224)" fill="none" stroke-linejoin="miter" d="M 16.526526 12.395151 C 13.32759 12.395151 12.72779 12.595085 12.070865 13.680438 C 11.128322 15.33703 9.443168 20.506739 9.443168 21.906274 C 9.443168 22.763132 9.871597 22.905941 13.727457 22.905941 C 13.584647 23.305808 13.213342 24.905276 12.385046 27.790031 C 12.185113 28.389832 11.985179 28.932508 11.870932 29.532309 L 11.642436 30.189233 C 9.386044 30.189233 9.128987 30.332043 8.58631 31.188901 C 7.729452 32.588435 6.101422 37.729583 6.101422 39.214803 C 6.101422 40.100223 6.444165 40.35728 7.8437 40.614337 C 7.986509 40.614337 8.272129 40.700023 8.529186 40.757147 C 7.8437 43.156349 7.643766 43.75615 6.929718 46.555219 C 6.444165 48.040439 6.044298 49.439974 5.901489 49.839841 C 5.244564 52.039109 5.101755 52.667471 5.101755 53.267272 C 5.101755 53.924196 5.530183 54.381187 6.329917 54.86674 C 7.643766 55.60935 11.928056 56.751827 13.32759 56.751827 C 14.412943 56.751827 15.069868 56.266275 15.669668 54.980988 C 16.412278 53.524329 17.868937 48.697363 18.95429 44.35595 C 19.211347 43.356283 19.439843 42.356615 19.6969 41.271262 L 19.811148 40.757147 L 20.553758 40.757147 L 23.09577 40.814271 L 25.894839 40.899957 L 28.72247 40.957081 C 30.122004 40.957081 30.521871 40.700023 31.064548 39.671794 C 31.864282 37.872392 33.063883 33.445293 33.063883 32.331378 C 33.063883 31.046091 32.57833 30.446291 31.521539 30.332043 C 30.778929 30.189233 28.779594 30.189233 25.037981 30.189233 L 22.753027 30.189233 C 23.495637 27.504412 23.781256 26.447621 23.781256 26.047754 C 23.781256 24.9624 22.981522 24.419724 18.611547 22.763132 C 20.011081 22.763132 20.553758 22.763132 22.895836 22.820256 C 24.438181 22.905941 25.637782 22.963065 26.294706 23.020189 C 28.465413 23.077313 29.979195 23.162999 30.607557 23.162999 C 31.664349 23.248685 32.86395 23.305808 33.263817 23.305808 C 34.520541 23.305808 34.94897 22.905941 35.663019 21.077978 C 36.405629 19.221453 37.262487 15.822583 37.262487 14.73723 C 37.262487 13.737562 37.005429 13.537629 35.463085 13.194886 C 32.378397 12.652209 28.72247 12.452275 17.497632 12.395151 Z M 41.346843 23.562866 C 40.404299 23.562866 39.947308 23.61999 39.547441 23.962733 C 39.004764 24.3626 39.004764 24.3626 37.062553 30.189233 C 34.377732 38.415069 30.778929 51.782052 30.778929 53.524329 C 30.778929 54.381187 31.178796 54.923864 32.235587 55.466541 C 33.406626 56.066341 35.805828 56.580456 37.348172 56.580456 C 39.690251 56.580456 40.147241 56.323398 40.604232 54.381187 C 40.747042 54.067006 40.832728 53.667139 40.946976 53.267272 C 41.632462 50.582451 42.232262 48.040439 42.803501 45.584113 C 43.631797 42.499425 46.830733 30.846158 47.2306 29.589433 C 47.97321 27.361602 48.173144 26.561868 48.173144 26.190563 C 48.173144 24.562533 45.545446 23.562866 41.346843 23.562866 Z M 63.025347 48.326058 C 60.99745 48.383182 59.055239 48.383182 57.398647 48.383182 C 56.313293 48.383182 55.856302 48.383182 54.999445 48.326058 C 55.656369 45.155684 58.598248 34.58777 60.054906 29.903614 C 60.940326 27.247355 61.140259 26.361935 61.140259 25.84782 C 61.140259 25.390829 60.940326 25.048086 60.483335 24.848153 C 59.055239 24.162666 56.056236 23.505742 54.513892 23.505742 C 52.600243 23.505742 52.428871 23.61999 51.629137 26.447621 C 50.915089 29.046756 50.715155 29.646557 49.829735 32.645559 C 46.887857 42.413739 45.431198 48.240372 45.431198 49.925526 C 45.431198 50.639575 45.773942 51.239375 47.030666 53.124462 C 48.630134 55.466541 49.429868 56.209151 50.515222 56.523332 C 50.772279 56.666142 53.114357 56.751827 57.455771 56.808951 C 62.48267 56.808951 62.539794 56.808951 63.282404 56.009217 C 64.025014 55.066674 65.367425 50.896632 65.367425 49.439974 C 65.367425 48.583116 64.938996 48.326058 63.739395 48.326058 Z M 94.243535 37.958078 C 94.100726 38.757812 94.043602 39.129117 93.500925 41.214138 C 92.844001 43.75615 91.073161 53.38152 91.073161 54.523997 C 91.073161 55.123797 91.244533 55.466541 91.758647 55.780722 C 92.644067 56.409084 94.786212 56.866075 96.642737 56.866075 C 98.099396 56.866075 98.927692 56.580456 99.49893 55.923531 C 100.041607 55.266607 100.041607 55.180921 100.38435 51.325061 L 102.469371 29.84649 C 102.583618 28.132774 102.669304 27.447288 102.669304 27.104545 C 102.669304 26.247687 102.412247 25.762134 101.669637 25.305143 C 100.38435 24.505409 97.728091 23.819923 95.900127 23.819923 C 95.157517 23.819923 94.443469 24.105542 93.986478 24.562533 C 93.300992 25.305143 93.300992 25.305143 90.216303 30.446291 C 88.159844 33.930846 86.560376 37.129782 83.275754 44.35595 C 83.532812 42.013872 83.618498 40.614337 83.618498 38.215135 C 83.618498 31.731577 83.190069 26.361935 82.590268 25.505077 C 81.990468 24.648219 78.505912 23.61999 75.849653 23.61999 C 73.450451 23.61999 73.450451 23.61999 71.22262 29.446623 C 68.623485 36.015867 63.739395 52.324728 63.739395 54.324063 C 63.739395 55.523664 66.48134 56.666142 69.480343 56.666142 C 70.222953 56.666142 70.822753 56.466208 71.308306 55.923531 C 71.708173 55.466541 71.708173 55.466541 72.507907 52.381852 L 76.449453 37.472525 C 76.363768 38.87206 76.363768 38.87206 76.306644 41.414071 C 76.10671 46.498095 76.10671 46.897962 76.10671 50.296831 C 76.10671 54.26694 76.192396 54.86674 76.792197 55.323731 C 77.649054 56.066341 79.848323 56.666142 81.533477 56.666142 C 82.790202 56.666142 83.618498 56.409084 84.218298 55.723598 C 84.675289 55.266607 84.675289 55.266607 86.47469 51.981985 Z M 94.243535 37.958078 " stroke="#000000" stroke-width="17.554741" stroke-opacity="1" stroke-miterlimit="4"/><g fill="#ffffff" fill-opacity="1"><g transform="translate(22.313542, 22.873785)"><g><path d="M 1.5625 -6.101562 C 1.125 -6.101562 1.042969 -6.074219 0.949219 -5.925781 C 0.824219 -5.699219 0.59375 -4.992188 0.59375 -4.800781 C 0.59375 -4.683594 0.648438 -4.664062 1.179688 -4.664062 C 1.160156 -4.609375 1.105469 -4.390625 0.996094 -3.996094 C 0.96875 -3.914062 0.941406 -3.839844 0.921875 -3.757812 L 0.894531 -3.667969 C 0.585938 -3.667969 0.546875 -3.648438 0.476562 -3.53125 C 0.355469 -3.339844 0.136719 -2.632812 0.136719 -2.433594 C 0.136719 -2.3125 0.183594 -2.277344 0.375 -2.242188 C 0.394531 -2.242188 0.429688 -2.230469 0.464844 -2.222656 C 0.375 -1.894531 0.347656 -1.8125 0.246094 -1.425781 C 0.183594 -1.226562 0.128906 -1.035156 0.109375 -0.980469 C 0.0195312 -0.675781 0 -0.59375 0 -0.511719 C 0 -0.421875 0.0546875 -0.355469 0.164062 -0.292969 C 0.347656 -0.191406 0.933594 -0.0351562 1.125 -0.0351562 C 1.269531 -0.0351562 1.363281 -0.101562 1.445312 -0.273438 C 1.546875 -0.476562 1.746094 -1.132812 1.894531 -1.726562 C 1.929688 -1.867188 1.957031 -2.003906 1.992188 -2.148438 L 2.011719 -2.222656 L 2.113281 -2.222656 L 2.460938 -2.214844 L 2.84375 -2.203125 L 3.226562 -2.195312 C 3.421875 -2.195312 3.476562 -2.230469 3.546875 -2.367188 C 3.65625 -2.617188 3.824219 -3.21875 3.824219 -3.375 C 3.824219 -3.546875 3.757812 -3.628906 3.613281 -3.648438 C 3.511719 -3.667969 3.238281 -3.667969 2.726562 -3.667969 L 2.414062 -3.667969 C 2.515625 -4.03125 2.550781 -4.179688 2.550781 -4.234375 C 2.550781 -4.378906 2.441406 -4.453125 1.847656 -4.683594 C 2.039062 -4.683594 2.113281 -4.683594 2.433594 -4.671875 C 2.644531 -4.664062 2.808594 -4.65625 2.898438 -4.644531 C 3.191406 -4.636719 3.402344 -4.628906 3.484375 -4.628906 C 3.628906 -4.617188 3.796875 -4.609375 3.851562 -4.609375 C 4.023438 -4.609375 4.078125 -4.664062 4.179688 -4.910156 C 4.28125 -5.167969 4.398438 -5.632812 4.398438 -5.78125 C 4.398438 -5.917969 4.363281 -5.945312 4.152344 -5.992188 C 3.730469 -6.0625 3.226562 -6.089844 1.691406 -6.101562 Z M 1.5625 -6.101562 "/></g></g></g><g fill="#ffffff" fill-opacity="1"><g transform="translate(25.907039, 22.873785)"><g><path d="M 1.363281 -4.574219 C 1.234375 -4.574219 1.171875 -4.5625 1.117188 -4.519531 C 1.042969 -4.464844 1.042969 -4.464844 0.777344 -3.667969 C 0.410156 -2.542969 -0.0820312 -0.714844 -0.0820312 -0.476562 C -0.0820312 -0.355469 -0.0273438 -0.285156 0.117188 -0.210938 C 0.273438 -0.128906 0.605469 -0.0546875 0.8125 -0.0546875 C 1.132812 -0.0546875 1.199219 -0.0898438 1.261719 -0.355469 C 1.28125 -0.402344 1.289062 -0.457031 1.308594 -0.511719 C 1.398438 -0.878906 1.480469 -1.226562 1.5625 -1.5625 C 1.671875 -1.984375 2.113281 -3.574219 2.167969 -3.75 C 2.269531 -4.050781 2.296875 -4.160156 2.296875 -4.214844 C 2.296875 -4.433594 1.9375 -4.574219 1.363281 -4.574219 Z M 1.363281 -4.574219 "/></g></g></g><g fill="#ffffff" fill-opacity="1"><g transform="translate(27.799753, 22.873785)"><g><path d="M 2.433594 -1.1875 C 2.160156 -1.179688 1.894531 -1.179688 1.664062 -1.179688 C 1.519531 -1.179688 1.453125 -1.179688 1.335938 -1.1875 C 1.425781 -1.617188 1.828125 -3.0625 2.03125 -3.703125 C 2.148438 -4.070312 2.175781 -4.1875 2.175781 -4.261719 C 2.175781 -4.324219 2.148438 -4.371094 2.085938 -4.398438 C 1.894531 -4.492188 1.480469 -4.582031 1.269531 -4.582031 C 1.007812 -4.582031 0.988281 -4.5625 0.878906 -4.179688 C 0.777344 -3.824219 0.75 -3.742188 0.632812 -3.328125 C 0.230469 -1.992188 0.0273438 -1.199219 0.0273438 -0.96875 C 0.0273438 -0.867188 0.0742188 -0.785156 0.246094 -0.53125 C 0.464844 -0.210938 0.574219 -0.109375 0.722656 -0.0625 C 0.757812 -0.046875 1.078125 -0.0351562 1.671875 -0.0273438 C 2.359375 -0.0273438 2.367188 -0.0273438 2.46875 -0.136719 C 2.570312 -0.265625 2.753906 -0.832031 2.753906 -1.035156 C 2.753906 -1.152344 2.699219 -1.1875 2.535156 -1.1875 Z M 2.433594 -1.1875 "/></g></g></g><g fill="#ffffff" fill-opacity="1"><g transform="translate(30.414844, 22.873785)"><g><path d="M 4.089844 -2.605469 C 4.070312 -2.496094 4.0625 -2.441406 3.988281 -2.160156 C 3.894531 -1.8125 3.65625 -0.492188 3.65625 -0.339844 C 3.65625 -0.257812 3.675781 -0.210938 3.75 -0.164062 C 3.867188 -0.0820312 4.160156 -0.0195312 4.417969 -0.0195312 C 4.617188 -0.0195312 4.726562 -0.0546875 4.808594 -0.144531 C 4.882812 -0.238281 4.882812 -0.246094 4.929688 -0.777344 L 5.214844 -3.714844 C 5.230469 -3.949219 5.242188 -4.042969 5.242188 -4.089844 C 5.242188 -4.207031 5.203125 -4.269531 5.101562 -4.335938 C 4.929688 -4.445312 4.5625 -4.535156 4.316406 -4.535156 C 4.214844 -4.535156 4.117188 -4.5 4.050781 -4.433594 C 3.960938 -4.335938 3.960938 -4.335938 3.539062 -3.628906 C 3.253906 -3.15625 3.035156 -2.714844 2.589844 -1.726562 C 2.625 -2.046875 2.632812 -2.242188 2.632812 -2.570312 C 2.632812 -3.457031 2.578125 -4.1875 2.496094 -4.308594 C 2.414062 -4.425781 1.9375 -4.5625 1.574219 -4.5625 C 1.242188 -4.5625 1.242188 -4.5625 0.941406 -3.769531 C 0.585938 -2.871094 -0.0820312 -0.640625 -0.0820312 -0.367188 C -0.0820312 -0.203125 0.292969 -0.046875 0.703125 -0.046875 C 0.804688 -0.046875 0.886719 -0.0742188 0.949219 -0.144531 C 1.007812 -0.210938 1.007812 -0.210938 1.117188 -0.632812 L 1.65625 -2.671875 C 1.644531 -2.476562 1.644531 -2.476562 1.636719 -2.132812 C 1.609375 -1.4375 1.609375 -1.382812 1.609375 -0.914062 C 1.609375 -0.375 1.617188 -0.292969 1.699219 -0.230469 C 1.820312 -0.128906 2.121094 -0.046875 2.351562 -0.046875 C 2.523438 -0.046875 2.632812 -0.0820312 2.714844 -0.171875 C 2.78125 -0.238281 2.78125 -0.238281 3.027344 -0.6875 Z M 4.089844 -2.605469 "/></g></g></g><g fill="#ffffff" fill-opacity="1"><g transform="translate(35.598904, 22.873785)"><g/></g></g></svg>